<?xml version="1.0" encoding="utf-8"?>
<svg xmlns="http://www.w3.org/2000/svg" xmlns:xlink="http://www.w3.org/1999/xlink" width="600" height="400" viewBox="0 0 2400 1600">
<defs>
  <clipPath id="clip070">
    <rect x="0" y="0" width="2400" height="1600"/>
  </clipPath>
</defs>
<path clip-path="url(#clip070)" d="
M0 1600 L2400 1600 L2400 0 L0 0  Z
  " fill="#ffffff" fill-rule="evenodd" fill-opacity="1"/>
<defs>
  <clipPath id="clip071">
    <rect x="480" y="0" width="1681" height="1600"/>
  </clipPath>
</defs>
<path clip-path="url(#clip070)" d="
M240.352 1442.95 L2352.76 1442.95 L2352.76 47.2441 L240.352 47.2441  Z
  " fill="#ffffff" fill-rule="evenodd" fill-opacity="1"/>
<defs>
  <clipPath id="clip072">
    <rect x="240" y="47" width="2113" height="1397"/>
  </clipPath>
</defs>
<polyline clip-path="url(#clip072)" style="stroke:#000000; stroke-linecap:butt; stroke-linejoin:round; stroke-width:2; stroke-opacity:0.1; fill:none" points="
  292.838,1442.95 292.838,47.2441 
  "/>
<polyline clip-path="url(#clip072)" style="stroke:#000000; stroke-linecap:butt; stroke-linejoin:round; stroke-width:2; stroke-opacity:0.1; fill:none" points="
  738.123,1442.95 738.123,47.2441 
  "/>
<polyline clip-path="url(#clip072)" style="stroke:#000000; stroke-linecap:butt; stroke-linejoin:round; stroke-width:2; stroke-opacity:0.1; fill:none" points="
  1183.41,1442.95 1183.41,47.2441 
  "/>
<polyline clip-path="url(#clip072)" style="stroke:#000000; stroke-linecap:butt; stroke-linejoin:round; stroke-width:2; stroke-opacity:0.1; fill:none" points="
  1628.69,1442.95 1628.69,47.2441 
  "/>
<polyline clip-path="url(#clip072)" style="stroke:#000000; stroke-linecap:butt; stroke-linejoin:round; stroke-width:2; stroke-opacity:0.1; fill:none" points="
  2073.98,1442.95 2073.98,47.2441 
  "/>
<polyline clip-path="url(#clip070)" style="stroke:#000000; stroke-linecap:butt; stroke-linejoin:round; stroke-width:4; stroke-opacity:1; fill:none" points="
  240.352,1442.95 2352.76,1442.95 
  "/>
<polyline clip-path="url(#clip070)" style="stroke:#000000; stroke-linecap:butt; stroke-linejoin:round; stroke-width:4; stroke-opacity:1; fill:none" points="
  292.838,1442.95 292.838,1426.2 
  "/>
<polyline clip-path="url(#clip070)" style="stroke:#000000; stroke-linecap:butt; stroke-linejoin:round; stroke-width:4; stroke-opacity:1; fill:none" points="
  738.123,1442.95 738.123,1426.2 
  "/>
<polyline clip-path="url(#clip070)" style="stroke:#000000; stroke-linecap:butt; stroke-linejoin:round; stroke-width:4; stroke-opacity:1; fill:none" points="
  1183.41,1442.95 1183.41,1426.2 
  "/>
<polyline clip-path="url(#clip070)" style="stroke:#000000; stroke-linecap:butt; stroke-linejoin:round; stroke-width:4; stroke-opacity:1; fill:none" points="
  1628.69,1442.95 1628.69,1426.2 
  "/>
<polyline clip-path="url(#clip070)" style="stroke:#000000; stroke-linecap:butt; stroke-linejoin:round; stroke-width:4; stroke-opacity:1; fill:none" points="
  2073.98,1442.95 2073.98,1426.2 
  "/>
<path clip-path="url(#clip070)" d="M164.632 1499.69 L180.952 1499.69 L180.952 1503.62 L159.007 1503.62 L159.007 1499.69 Q161.669 1496.93 166.253 1492.3 Q170.859 1487.65 172.04 1486.31 Q174.285 1483.78 175.165 1482.05 Q176.067 1480.29 176.067 1478.6 Q176.067 1475.84 174.123 1474.11 Q172.202 1472.37 169.1 1472.37 Q166.901 1472.37 164.447 1473.14 Q162.016 1473.9 159.239 1475.45 L159.239 1470.73 Q162.063 1469.59 164.516 1469.02 Q166.97 1468.44 169.007 1468.44 Q174.378 1468.44 177.572 1471.12 Q180.766 1473.81 180.766 1478.3 Q180.766 1480.43 179.956 1482.35 Q179.169 1484.25 177.063 1486.84 Q176.484 1487.51 173.382 1490.73 Q170.28 1493.92 164.632 1499.69 Z" fill="#000000" fill-rule="evenodd" fill-opacity="1" /><path clip-path="url(#clip070)" d="M200.766 1472.14 Q197.155 1472.14 195.326 1475.71 Q193.521 1479.25 193.521 1486.38 Q193.521 1493.48 195.326 1497.05 Q197.155 1500.59 200.766 1500.59 Q204.4 1500.59 206.206 1497.05 Q208.035 1493.48 208.035 1486.38 Q208.035 1479.25 206.206 1475.71 Q204.4 1472.14 200.766 1472.14 M200.766 1468.44 Q206.576 1468.44 209.632 1473.04 Q212.711 1477.63 212.711 1486.38 Q212.711 1495.1 209.632 1499.71 Q206.576 1504.29 200.766 1504.29 Q194.956 1504.29 191.877 1499.71 Q188.822 1495.1 188.822 1486.38 Q188.822 1477.63 191.877 1473.04 Q194.956 1468.44 200.766 1468.44 Z" fill="#000000" fill-rule="evenodd" fill-opacity="1" /><path clip-path="url(#clip070)" d="M224.956 1499.69 L241.275 1499.69 L241.275 1503.62 L219.331 1503.62 L219.331 1499.69 Q221.993 1496.93 226.576 1492.3 Q231.183 1487.65 232.363 1486.31 Q234.609 1483.78 235.488 1482.05 Q236.391 1480.29 236.391 1478.6 Q236.391 1475.84 234.447 1474.11 Q232.525 1472.37 229.424 1472.37 Q227.224 1472.37 224.771 1473.14 Q222.34 1473.9 219.562 1475.45 L219.562 1470.73 Q222.387 1469.59 224.84 1469.02 Q227.294 1468.44 229.331 1468.44 Q234.701 1468.44 237.896 1471.12 Q241.09 1473.81 241.09 1478.3 Q241.09 1480.43 240.28 1482.35 Q239.493 1484.25 237.386 1486.84 Q236.808 1487.51 233.706 1490.73 Q230.604 1493.92 224.956 1499.69 Z" fill="#000000" fill-rule="evenodd" fill-opacity="1" /><path clip-path="url(#clip070)" d="M261.09 1472.14 Q257.479 1472.14 255.65 1475.71 Q253.845 1479.25 253.845 1486.38 Q253.845 1493.48 255.65 1497.05 Q257.479 1500.59 261.09 1500.59 Q264.724 1500.59 266.53 1497.05 Q268.358 1493.48 268.358 1486.38 Q268.358 1479.25 266.53 1475.71 Q264.724 1472.14 261.09 1472.14 M261.09 1468.44 Q266.9 1468.44 269.956 1473.04 Q273.034 1477.63 273.034 1486.38 Q273.034 1495.1 269.956 1499.71 Q266.9 1504.29 261.09 1504.29 Q255.28 1504.29 252.201 1499.71 Q249.146 1495.1 249.146 1486.38 Q249.146 1477.63 252.201 1473.04 Q255.28 1468.44 261.09 1468.44 Z" fill="#000000" fill-rule="evenodd" fill-opacity="1" /><path clip-path="url(#clip070)" d="M278.497 1488.74 L290.974 1488.74 L290.974 1492.53 L278.497 1492.53 L278.497 1488.74 Z" fill="#000000" fill-rule="evenodd" fill-opacity="1" /><path clip-path="url(#clip070)" d="M308.358 1472.14 Q304.747 1472.14 302.918 1475.71 Q301.113 1479.25 301.113 1486.38 Q301.113 1493.48 302.918 1497.05 Q304.747 1500.59 308.358 1500.59 Q311.993 1500.59 313.798 1497.05 Q315.627 1493.48 315.627 1486.38 Q315.627 1479.25 313.798 1475.71 Q311.993 1472.14 308.358 1472.14 M308.358 1468.44 Q314.168 1468.44 317.224 1473.04 Q320.303 1477.63 320.303 1486.38 Q320.303 1495.1 317.224 1499.71 Q314.168 1504.29 308.358 1504.29 Q302.548 1504.29 299.469 1499.71 Q296.414 1495.1 296.414 1486.38 Q296.414 1477.63 299.469 1473.04 Q302.548 1468.44 308.358 1468.44 Z" fill="#000000" fill-rule="evenodd" fill-opacity="1" /><path clip-path="url(#clip070)" d="M341.367 1473.14 L329.562 1491.58 L341.367 1491.58 L341.367 1473.14 M340.141 1469.06 L346.02 1469.06 L346.02 1491.58 L350.951 1491.58 L350.951 1495.47 L346.02 1495.47 L346.02 1503.62 L341.367 1503.62 L341.367 1495.47 L325.766 1495.47 L325.766 1490.96 L340.141 1469.06 Z" fill="#000000" fill-rule="evenodd" fill-opacity="1" /><path clip-path="url(#clip070)" d="M355.927 1488.74 L368.404 1488.74 L368.404 1492.53 L355.927 1492.53 L355.927 1488.74 Z" fill="#000000" fill-rule="evenodd" fill-opacity="1" /><path clip-path="url(#clip070)" d="M385.788 1472.14 Q382.177 1472.14 380.349 1475.71 Q378.543 1479.25 378.543 1486.38 Q378.543 1493.48 380.349 1497.05 Q382.177 1500.59 385.788 1500.59 Q389.423 1500.59 391.228 1497.05 Q393.057 1493.48 393.057 1486.38 Q393.057 1479.25 391.228 1475.71 Q389.423 1472.14 385.788 1472.14 M385.788 1468.44 Q391.599 1468.44 394.654 1473.04 Q397.733 1477.63 397.733 1486.38 Q397.733 1495.1 394.654 1499.71 Q391.599 1504.29 385.788 1504.29 Q379.978 1504.29 376.9 1499.71 Q373.844 1495.1 373.844 1486.38 Q373.844 1477.63 376.9 1473.04 Q379.978 1468.44 385.788 1468.44 Z" fill="#000000" fill-rule="evenodd" fill-opacity="1" /><path clip-path="url(#clip070)" d="M406.761 1499.69 L414.399 1499.69 L414.399 1473.32 L406.089 1474.99 L406.089 1470.73 L414.353 1469.06 L419.029 1469.06 L419.029 1499.69 L426.668 1499.69 L426.668 1503.62 L406.761 1503.62 L406.761 1499.69 Z" fill="#000000" fill-rule="evenodd" fill-opacity="1" /><path clip-path="url(#clip070)" d="M609.917 1499.69 L626.237 1499.69 L626.237 1503.62 L604.292 1503.62 L604.292 1499.69 Q606.954 1496.93 611.538 1492.3 Q616.144 1487.65 617.325 1486.31 Q619.57 1483.78 620.45 1482.05 Q621.352 1480.29 621.352 1478.6 Q621.352 1475.84 619.408 1474.11 Q617.487 1472.37 614.385 1472.37 Q612.186 1472.37 609.732 1473.14 Q607.302 1473.9 604.524 1475.45 L604.524 1470.73 Q607.348 1469.59 609.802 1469.02 Q612.255 1468.44 614.292 1468.44 Q619.663 1468.44 622.857 1471.12 Q626.052 1473.81 626.052 1478.3 Q626.052 1480.43 625.241 1482.35 Q624.454 1484.25 622.348 1486.84 Q621.769 1487.51 618.667 1490.73 Q615.565 1493.92 609.917 1499.69 Z" fill="#000000" fill-rule="evenodd" fill-opacity="1" /><path clip-path="url(#clip070)" d="M646.051 1472.14 Q642.44 1472.14 640.612 1475.71 Q638.806 1479.25 638.806 1486.38 Q638.806 1493.48 640.612 1497.05 Q642.44 1500.59 646.051 1500.59 Q649.686 1500.59 651.491 1497.05 Q653.32 1493.48 653.32 1486.38 Q653.32 1479.25 651.491 1475.71 Q649.686 1472.14 646.051 1472.14 M646.051 1468.44 Q651.862 1468.44 654.917 1473.04 Q657.996 1477.63 657.996 1486.38 Q657.996 1495.1 654.917 1499.71 Q651.862 1504.29 646.051 1504.29 Q640.241 1504.29 637.163 1499.71 Q634.107 1495.1 634.107 1486.38 Q634.107 1477.63 637.163 1473.04 Q640.241 1468.44 646.051 1468.44 Z" fill="#000000" fill-rule="evenodd" fill-opacity="1" /><path clip-path="url(#clip070)" d="M670.241 1499.69 L686.56 1499.69 L686.56 1503.62 L664.616 1503.62 L664.616 1499.69 Q667.278 1496.93 671.861 1492.3 Q676.468 1487.65 677.648 1486.31 Q679.894 1483.78 680.773 1482.05 Q681.676 1480.29 681.676 1478.6 Q681.676 1475.84 679.732 1474.11 Q677.811 1472.37 674.709 1472.37 Q672.51 1472.37 670.056 1473.14 Q667.625 1473.9 664.848 1475.45 L664.848 1470.73 Q667.672 1469.59 670.125 1469.02 Q672.579 1468.44 674.616 1468.44 Q679.986 1468.44 683.181 1471.12 Q686.375 1473.81 686.375 1478.3 Q686.375 1480.43 685.565 1482.35 Q684.778 1484.25 682.672 1486.84 Q682.093 1487.51 678.991 1490.73 Q675.889 1493.92 670.241 1499.69 Z" fill="#000000" fill-rule="evenodd" fill-opacity="1" /><path clip-path="url(#clip070)" d="M706.375 1472.14 Q702.764 1472.14 700.935 1475.71 Q699.13 1479.25 699.13 1486.38 Q699.13 1493.48 700.935 1497.05 Q702.764 1500.59 706.375 1500.59 Q710.009 1500.59 711.815 1497.05 Q713.644 1493.48 713.644 1486.38 Q713.644 1479.25 711.815 1475.71 Q710.009 1472.14 706.375 1472.14 M706.375 1468.44 Q712.185 1468.44 715.241 1473.04 Q718.32 1477.63 718.32 1486.38 Q718.32 1495.1 715.241 1499.71 Q712.185 1504.29 706.375 1504.29 Q700.565 1504.29 697.486 1499.71 Q694.431 1495.1 694.431 1486.38 Q694.431 1477.63 697.486 1473.04 Q700.565 1468.44 706.375 1468.44 Z" fill="#000000" fill-rule="evenodd" fill-opacity="1" /><path clip-path="url(#clip070)" d="M723.782 1488.74 L736.259 1488.74 L736.259 1492.53 L723.782 1492.53 L723.782 1488.74 Z" fill="#000000" fill-rule="evenodd" fill-opacity="1" /><path clip-path="url(#clip070)" d="M753.643 1472.14 Q750.032 1472.14 748.204 1475.71 Q746.398 1479.25 746.398 1486.38 Q746.398 1493.48 748.204 1497.05 Q750.032 1500.59 753.643 1500.59 Q757.278 1500.59 759.083 1497.05 Q760.912 1493.48 760.912 1486.38 Q760.912 1479.25 759.083 1475.71 Q757.278 1472.14 753.643 1472.14 M753.643 1468.44 Q759.454 1468.44 762.509 1473.04 Q765.588 1477.63 765.588 1486.38 Q765.588 1495.1 762.509 1499.71 Q759.454 1504.29 753.643 1504.29 Q747.833 1504.29 744.755 1499.71 Q741.699 1495.1 741.699 1486.38 Q741.699 1477.63 744.755 1473.04 Q747.833 1468.44 753.643 1468.44 Z" fill="#000000" fill-rule="evenodd" fill-opacity="1" /><path clip-path="url(#clip070)" d="M784.384 1484.48 Q781.236 1484.48 779.384 1486.63 Q777.555 1488.78 777.555 1492.53 Q777.555 1496.26 779.384 1498.44 Q781.236 1500.59 784.384 1500.59 Q787.532 1500.59 789.361 1498.44 Q791.213 1496.26 791.213 1492.53 Q791.213 1488.78 789.361 1486.63 Q787.532 1484.48 784.384 1484.48 M793.666 1469.83 L793.666 1474.08 Q791.907 1473.25 790.102 1472.81 Q788.319 1472.37 786.56 1472.37 Q781.93 1472.37 779.477 1475.5 Q777.046 1478.62 776.699 1484.94 Q778.065 1482.93 780.125 1481.86 Q782.185 1480.77 784.662 1480.77 Q789.87 1480.77 792.879 1483.95 Q795.912 1487.09 795.912 1492.53 Q795.912 1497.86 792.764 1501.08 Q789.615 1504.29 784.384 1504.29 Q778.389 1504.29 775.217 1499.71 Q772.046 1495.1 772.046 1486.38 Q772.046 1478.18 775.935 1473.32 Q779.824 1468.44 786.375 1468.44 Q788.134 1468.44 789.916 1468.78 Q791.722 1469.13 793.666 1469.83 Z" fill="#000000" fill-rule="evenodd" fill-opacity="1" /><path clip-path="url(#clip070)" d="M801.213 1488.74 L813.689 1488.74 L813.689 1492.53 L801.213 1492.53 L801.213 1488.74 Z" fill="#000000" fill-rule="evenodd" fill-opacity="1" /><path clip-path="url(#clip070)" d="M831.074 1472.14 Q827.462 1472.14 825.634 1475.71 Q823.828 1479.25 823.828 1486.38 Q823.828 1493.48 825.634 1497.05 Q827.462 1500.59 831.074 1500.59 Q834.708 1500.59 836.513 1497.05 Q838.342 1493.48 838.342 1486.38 Q838.342 1479.25 836.513 1475.71 Q834.708 1472.14 831.074 1472.14 M831.074 1468.44 Q836.884 1468.44 839.939 1473.04 Q843.018 1477.63 843.018 1486.38 Q843.018 1495.1 839.939 1499.71 Q836.884 1504.29 831.074 1504.29 Q825.263 1504.29 822.185 1499.71 Q819.129 1495.1 819.129 1486.38 Q819.129 1477.63 822.185 1473.04 Q825.263 1468.44 831.074 1468.44 Z" fill="#000000" fill-rule="evenodd" fill-opacity="1" /><path clip-path="url(#clip070)" d="M852.046 1499.69 L859.685 1499.69 L859.685 1473.32 L851.374 1474.99 L851.374 1470.73 L859.638 1469.06 L864.314 1469.06 L864.314 1499.69 L871.953 1499.69 L871.953 1503.62 L852.046 1503.62 L852.046 1499.69 Z" fill="#000000" fill-rule="evenodd" fill-opacity="1" /><path clip-path="url(#clip070)" d="M1055.2 1499.69 L1071.52 1499.69 L1071.52 1503.62 L1049.58 1503.62 L1049.58 1499.69 Q1052.24 1496.93 1056.82 1492.3 Q1061.43 1487.65 1062.61 1486.31 Q1064.86 1483.78 1065.73 1482.05 Q1066.64 1480.29 1066.64 1478.6 Q1066.64 1475.84 1064.69 1474.11 Q1062.77 1472.37 1059.67 1472.37 Q1057.47 1472.37 1055.02 1473.14 Q1052.59 1473.9 1049.81 1475.45 L1049.81 1470.73 Q1052.63 1469.59 1055.09 1469.02 Q1057.54 1468.44 1059.58 1468.44 Q1064.95 1468.44 1068.14 1471.12 Q1071.34 1473.81 1071.34 1478.3 Q1071.34 1480.43 1070.53 1482.35 Q1069.74 1484.25 1067.63 1486.84 Q1067.05 1487.51 1063.95 1490.73 Q1060.85 1493.92 1055.2 1499.69 Z" fill="#000000" fill-rule="evenodd" fill-opacity="1" /><path clip-path="url(#clip070)" d="M1091.34 1472.14 Q1087.73 1472.14 1085.9 1475.71 Q1084.09 1479.25 1084.09 1486.38 Q1084.09 1493.48 1085.9 1497.05 Q1087.73 1500.59 1091.34 1500.59 Q1094.97 1500.59 1096.78 1497.05 Q1098.61 1493.48 1098.61 1486.38 Q1098.61 1479.25 1096.78 1475.71 Q1094.97 1472.14 1091.34 1472.14 M1091.34 1468.44 Q1097.15 1468.44 1100.2 1473.04 Q1103.28 1477.63 1103.28 1486.38 Q1103.28 1495.1 1100.2 1499.71 Q1097.15 1504.29 1091.34 1504.29 Q1085.53 1504.29 1082.45 1499.71 Q1079.39 1495.1 1079.39 1486.38 Q1079.39 1477.63 1082.45 1473.04 Q1085.53 1468.44 1091.34 1468.44 Z" fill="#000000" fill-rule="evenodd" fill-opacity="1" /><path clip-path="url(#clip070)" d="M1115.53 1499.69 L1131.85 1499.69 L1131.85 1503.62 L1109.9 1503.62 L1109.9 1499.69 Q1112.56 1496.93 1117.15 1492.3 Q1121.75 1487.65 1122.93 1486.31 Q1125.18 1483.78 1126.06 1482.05 Q1126.96 1480.29 1126.96 1478.6 Q1126.96 1475.84 1125.02 1474.11 Q1123.1 1472.37 1119.99 1472.37 Q1117.79 1472.37 1115.34 1473.14 Q1112.91 1473.9 1110.13 1475.45 L1110.13 1470.73 Q1112.96 1469.59 1115.41 1469.02 Q1117.86 1468.44 1119.9 1468.44 Q1125.27 1468.44 1128.47 1471.12 Q1131.66 1473.81 1131.66 1478.3 Q1131.66 1480.43 1130.85 1482.35 Q1130.06 1484.25 1127.96 1486.84 Q1127.38 1487.51 1124.28 1490.73 Q1121.17 1493.92 1115.53 1499.69 Z" fill="#000000" fill-rule="evenodd" fill-opacity="1" /><path clip-path="url(#clip070)" d="M1151.66 1472.14 Q1148.05 1472.14 1146.22 1475.71 Q1144.42 1479.25 1144.42 1486.38 Q1144.42 1493.48 1146.22 1497.05 Q1148.05 1500.59 1151.66 1500.59 Q1155.29 1500.59 1157.1 1497.05 Q1158.93 1493.48 1158.93 1486.38 Q1158.93 1479.25 1157.1 1475.71 Q1155.29 1472.14 1151.66 1472.14 M1151.66 1468.44 Q1157.47 1468.44 1160.53 1473.04 Q1163.6 1477.63 1163.6 1486.38 Q1163.6 1495.1 1160.53 1499.71 Q1157.47 1504.29 1151.66 1504.29 Q1145.85 1504.29 1142.77 1499.71 Q1139.72 1495.1 1139.72 1486.38 Q1139.72 1477.63 1142.77 1473.04 Q1145.85 1468.44 1151.66 1468.44 Z" fill="#000000" fill-rule="evenodd" fill-opacity="1" /><path clip-path="url(#clip070)" d="M1169.07 1488.74 L1181.54 1488.74 L1181.54 1492.53 L1169.07 1492.53 L1169.07 1488.74 Z" fill="#000000" fill-rule="evenodd" fill-opacity="1" /><path clip-path="url(#clip070)" d="M1198.93 1472.14 Q1195.32 1472.14 1193.49 1475.71 Q1191.68 1479.25 1191.68 1486.38 Q1191.68 1493.48 1193.49 1497.05 Q1195.32 1500.59 1198.93 1500.59 Q1202.56 1500.59 1204.37 1497.05 Q1206.2 1493.48 1206.2 1486.38 Q1206.2 1479.25 1204.37 1475.71 Q1202.56 1472.14 1198.93 1472.14 M1198.93 1468.44 Q1204.74 1468.44 1207.79 1473.04 Q1210.87 1477.63 1210.87 1486.38 Q1210.87 1495.1 1207.79 1499.71 Q1204.74 1504.29 1198.93 1504.29 Q1193.12 1504.29 1190.04 1499.71 Q1186.98 1495.1 1186.98 1486.38 Q1186.98 1477.63 1190.04 1473.04 Q1193.12 1468.44 1198.93 1468.44 Z" fill="#000000" fill-rule="evenodd" fill-opacity="1" /><path clip-path="url(#clip070)" d="M1229.09 1487.21 Q1225.76 1487.21 1223.84 1488.99 Q1221.94 1490.77 1221.94 1493.9 Q1221.94 1497.02 1223.84 1498.81 Q1225.76 1500.59 1229.09 1500.59 Q1232.42 1500.59 1234.35 1498.81 Q1236.27 1497 1236.27 1493.9 Q1236.27 1490.77 1234.35 1488.99 Q1232.45 1487.21 1229.09 1487.21 M1224.41 1485.22 Q1221.41 1484.48 1219.72 1482.42 Q1218.05 1480.36 1218.05 1477.4 Q1218.05 1473.25 1220.99 1470.84 Q1223.95 1468.44 1229.09 1468.44 Q1234.25 1468.44 1237.19 1470.84 Q1240.13 1473.25 1240.13 1477.4 Q1240.13 1480.36 1238.44 1482.42 Q1236.78 1484.48 1233.79 1485.22 Q1237.17 1486.01 1239.04 1488.3 Q1240.94 1490.59 1240.94 1493.9 Q1240.94 1498.92 1237.86 1501.61 Q1234.81 1504.29 1229.09 1504.29 Q1223.37 1504.29 1220.29 1501.61 Q1217.24 1498.92 1217.24 1493.9 Q1217.24 1490.59 1219.14 1488.3 Q1221.03 1486.01 1224.41 1485.22 M1222.7 1477.83 Q1222.7 1480.52 1224.37 1482.02 Q1226.06 1483.53 1229.09 1483.53 Q1232.1 1483.53 1233.79 1482.02 Q1235.5 1480.52 1235.5 1477.83 Q1235.5 1475.15 1233.79 1473.65 Q1232.1 1472.14 1229.09 1472.14 Q1226.06 1472.14 1224.37 1473.65 Q1222.7 1475.15 1222.7 1477.83 Z" fill="#000000" fill-rule="evenodd" fill-opacity="1" /><path clip-path="url(#clip070)" d="M1246.5 1488.74 L1258.97 1488.74 L1258.97 1492.53 L1246.5 1492.53 L1246.5 1488.74 Z" fill="#000000" fill-rule="evenodd" fill-opacity="1" /><path clip-path="url(#clip070)" d="M1276.36 1472.14 Q1272.75 1472.14 1270.92 1475.71 Q1269.11 1479.25 1269.11 1486.38 Q1269.11 1493.48 1270.92 1497.05 Q1272.75 1500.59 1276.36 1500.59 Q1279.99 1500.59 1281.8 1497.05 Q1283.63 1493.48 1283.63 1486.38 Q1283.63 1479.25 1281.8 1475.71 Q1279.99 1472.14 1276.36 1472.14 M1276.36 1468.44 Q1282.17 1468.44 1285.22 1473.04 Q1288.3 1477.63 1288.3 1486.38 Q1288.3 1495.1 1285.22 1499.71 Q1282.17 1504.29 1276.36 1504.29 Q1270.55 1504.29 1267.47 1499.71 Q1264.41 1495.1 1264.41 1486.38 Q1264.41 1477.63 1267.47 1473.04 Q1270.55 1468.44 1276.36 1468.44 Z" fill="#000000" fill-rule="evenodd" fill-opacity="1" /><path clip-path="url(#clip070)" d="M1297.33 1499.69 L1304.97 1499.69 L1304.97 1473.32 L1296.66 1474.99 L1296.66 1470.73 L1304.92 1469.06 L1309.6 1469.06 L1309.6 1499.69 L1317.24 1499.69 L1317.24 1503.62 L1297.33 1503.62 L1297.33 1499.69 Z" fill="#000000" fill-rule="evenodd" fill-opacity="1" /><path clip-path="url(#clip070)" d="M1500.49 1499.69 L1516.81 1499.69 L1516.81 1503.62 L1494.86 1503.62 L1494.86 1499.69 Q1497.52 1496.93 1502.11 1492.3 Q1506.71 1487.65 1507.9 1486.31 Q1510.14 1483.78 1511.02 1482.05 Q1511.92 1480.29 1511.92 1478.6 Q1511.92 1475.84 1509.98 1474.11 Q1508.06 1472.37 1504.96 1472.37 Q1502.76 1472.37 1500.3 1473.14 Q1497.87 1473.9 1495.09 1475.45 L1495.09 1470.73 Q1497.92 1469.59 1500.37 1469.02 Q1502.83 1468.44 1504.86 1468.44 Q1510.23 1468.44 1513.43 1471.12 Q1516.62 1473.81 1516.62 1478.3 Q1516.62 1480.43 1515.81 1482.35 Q1515.02 1484.25 1512.92 1486.84 Q1512.34 1487.51 1509.24 1490.73 Q1506.14 1493.92 1500.49 1499.69 Z" fill="#000000" fill-rule="evenodd" fill-opacity="1" /><path clip-path="url(#clip070)" d="M1536.62 1472.14 Q1533.01 1472.14 1531.18 1475.71 Q1529.38 1479.25 1529.38 1486.38 Q1529.38 1493.48 1531.18 1497.05 Q1533.01 1500.59 1536.62 1500.59 Q1540.26 1500.59 1542.06 1497.05 Q1543.89 1493.48 1543.89 1486.38 Q1543.89 1479.25 1542.06 1475.71 Q1540.26 1472.14 1536.62 1472.14 M1536.62 1468.44 Q1542.43 1468.44 1545.49 1473.04 Q1548.57 1477.63 1548.57 1486.38 Q1548.57 1495.1 1545.49 1499.71 Q1542.43 1504.29 1536.62 1504.29 Q1530.81 1504.29 1527.73 1499.71 Q1524.68 1495.1 1524.68 1486.38 Q1524.68 1477.63 1527.73 1473.04 Q1530.81 1468.44 1536.62 1468.44 Z" fill="#000000" fill-rule="evenodd" fill-opacity="1" /><path clip-path="url(#clip070)" d="M1560.81 1499.69 L1577.13 1499.69 L1577.13 1503.62 L1555.19 1503.62 L1555.19 1499.69 Q1557.85 1496.93 1562.43 1492.3 Q1567.04 1487.65 1568.22 1486.31 Q1570.46 1483.78 1571.34 1482.05 Q1572.25 1480.29 1572.25 1478.6 Q1572.25 1475.84 1570.3 1474.11 Q1568.38 1472.37 1565.28 1472.37 Q1563.08 1472.37 1560.63 1473.14 Q1558.2 1473.9 1555.42 1475.45 L1555.42 1470.73 Q1558.24 1469.59 1560.7 1469.02 Q1563.15 1468.44 1565.19 1468.44 Q1570.56 1468.44 1573.75 1471.12 Q1576.95 1473.81 1576.95 1478.3 Q1576.95 1480.43 1576.14 1482.35 Q1575.35 1484.25 1573.24 1486.84 Q1572.66 1487.51 1569.56 1490.73 Q1566.46 1493.92 1560.81 1499.69 Z" fill="#000000" fill-rule="evenodd" fill-opacity="1" /><path clip-path="url(#clip070)" d="M1596.95 1472.14 Q1593.33 1472.14 1591.51 1475.71 Q1589.7 1479.25 1589.7 1486.38 Q1589.7 1493.48 1591.51 1497.05 Q1593.33 1500.59 1596.95 1500.59 Q1600.58 1500.59 1602.39 1497.05 Q1604.21 1493.48 1604.21 1486.38 Q1604.21 1479.25 1602.39 1475.71 Q1600.58 1472.14 1596.95 1472.14 M1596.95 1468.44 Q1602.76 1468.44 1605.81 1473.04 Q1608.89 1477.63 1608.89 1486.38 Q1608.89 1495.1 1605.81 1499.71 Q1602.76 1504.29 1596.95 1504.29 Q1591.14 1504.29 1588.06 1499.71 Q1585 1495.1 1585 1486.38 Q1585 1477.63 1588.06 1473.04 Q1591.14 1468.44 1596.95 1468.44 Z" fill="#000000" fill-rule="evenodd" fill-opacity="1" /><path clip-path="url(#clip070)" d="M1614.35 1488.74 L1626.83 1488.74 L1626.83 1492.53 L1614.35 1492.53 L1614.35 1488.74 Z" fill="#000000" fill-rule="evenodd" fill-opacity="1" /><path clip-path="url(#clip070)" d="M1635.02 1499.69 L1642.66 1499.69 L1642.66 1473.32 L1634.35 1474.99 L1634.35 1470.73 L1642.62 1469.06 L1647.29 1469.06 L1647.29 1499.69 L1654.93 1499.69 L1654.93 1503.62 L1635.02 1503.62 L1635.02 1499.69 Z" fill="#000000" fill-rule="evenodd" fill-opacity="1" /><path clip-path="url(#clip070)" d="M1674.38 1472.14 Q1670.76 1472.14 1668.94 1475.71 Q1667.13 1479.25 1667.13 1486.38 Q1667.13 1493.48 1668.94 1497.05 Q1670.76 1500.59 1674.38 1500.59 Q1678.01 1500.59 1679.82 1497.05 Q1681.64 1493.48 1681.64 1486.38 Q1681.64 1479.25 1679.82 1475.71 Q1678.01 1472.14 1674.38 1472.14 M1674.38 1468.44 Q1680.19 1468.44 1683.24 1473.04 Q1686.32 1477.63 1686.32 1486.38 Q1686.32 1495.1 1683.24 1499.71 Q1680.19 1504.29 1674.38 1504.29 Q1668.57 1504.29 1665.49 1499.71 Q1662.43 1495.1 1662.43 1486.38 Q1662.43 1477.63 1665.49 1473.04 Q1668.57 1468.44 1674.38 1468.44 Z" fill="#000000" fill-rule="evenodd" fill-opacity="1" /><path clip-path="url(#clip070)" d="M1691.78 1488.74 L1704.26 1488.74 L1704.26 1492.53 L1691.78 1492.53 L1691.78 1488.74 Z" fill="#000000" fill-rule="evenodd" fill-opacity="1" /><path clip-path="url(#clip070)" d="M1721.64 1472.14 Q1718.03 1472.14 1716.2 1475.71 Q1714.4 1479.25 1714.4 1486.38 Q1714.4 1493.48 1716.2 1497.05 Q1718.03 1500.59 1721.64 1500.59 Q1725.28 1500.59 1727.08 1497.05 Q1728.91 1493.48 1728.91 1486.38 Q1728.91 1479.25 1727.08 1475.71 Q1725.28 1472.14 1721.64 1472.14 M1721.64 1468.44 Q1727.45 1468.44 1730.51 1473.04 Q1733.59 1477.63 1733.59 1486.38 Q1733.59 1495.1 1730.51 1499.71 Q1727.45 1504.29 1721.64 1504.29 Q1715.83 1504.29 1712.76 1499.71 Q1709.7 1495.1 1709.7 1486.38 Q1709.7 1477.63 1712.76 1473.04 Q1715.83 1468.44 1721.64 1468.44 Z" fill="#000000" fill-rule="evenodd" fill-opacity="1" /><path clip-path="url(#clip070)" d="M1742.62 1499.69 L1750.25 1499.69 L1750.25 1473.32 L1741.94 1474.99 L1741.94 1470.73 L1750.21 1469.06 L1754.88 1469.06 L1754.88 1499.69 L1762.52 1499.69 L1762.52 1503.62 L1742.62 1503.62 L1742.62 1499.69 Z" fill="#000000" fill-rule="evenodd" fill-opacity="1" /><path clip-path="url(#clip070)" d="M1945.77 1499.69 L1962.09 1499.69 L1962.09 1503.62 L1940.15 1503.62 L1940.15 1499.69 Q1942.81 1496.93 1947.39 1492.3 Q1952 1487.65 1953.18 1486.31 Q1955.43 1483.78 1956.31 1482.05 Q1957.21 1480.29 1957.21 1478.6 Q1957.21 1475.84 1955.26 1474.11 Q1953.34 1472.37 1950.24 1472.37 Q1948.04 1472.37 1945.59 1473.14 Q1943.16 1473.9 1940.38 1475.45 L1940.38 1470.73 Q1943.2 1469.59 1945.66 1469.02 Q1948.11 1468.44 1950.15 1468.44 Q1955.52 1468.44 1958.71 1471.12 Q1961.91 1473.81 1961.91 1478.3 Q1961.91 1480.43 1961.1 1482.35 Q1960.31 1484.25 1958.2 1486.84 Q1957.62 1487.51 1954.52 1490.73 Q1951.42 1493.92 1945.77 1499.69 Z" fill="#000000" fill-rule="evenodd" fill-opacity="1" /><path clip-path="url(#clip070)" d="M1981.91 1472.14 Q1978.3 1472.14 1976.47 1475.71 Q1974.66 1479.25 1974.66 1486.38 Q1974.66 1493.48 1976.47 1497.05 Q1978.3 1500.59 1981.91 1500.59 Q1985.54 1500.59 1987.35 1497.05 Q1989.18 1493.48 1989.18 1486.38 Q1989.18 1479.25 1987.35 1475.71 Q1985.54 1472.14 1981.91 1472.14 M1981.91 1468.44 Q1987.72 1468.44 1990.77 1473.04 Q1993.85 1477.63 1993.85 1486.38 Q1993.85 1495.1 1990.77 1499.71 Q1987.72 1504.29 1981.91 1504.29 Q1976.1 1504.29 1973.02 1499.71 Q1969.96 1495.1 1969.96 1486.38 Q1969.96 1477.63 1973.02 1473.04 Q1976.1 1468.44 1981.91 1468.44 Z" fill="#000000" fill-rule="evenodd" fill-opacity="1" /><path clip-path="url(#clip070)" d="M2006.1 1499.69 L2022.42 1499.69 L2022.42 1503.62 L2000.47 1503.62 L2000.47 1499.69 Q2003.13 1496.93 2007.72 1492.3 Q2012.32 1487.65 2013.5 1486.31 Q2015.75 1483.78 2016.63 1482.05 Q2017.53 1480.29 2017.53 1478.6 Q2017.53 1475.84 2015.59 1474.11 Q2013.67 1472.37 2010.56 1472.37 Q2008.37 1472.37 2005.91 1473.14 Q2003.48 1473.9 2000.7 1475.45 L2000.7 1470.73 Q2003.53 1469.59 2005.98 1469.02 Q2008.43 1468.44 2010.47 1468.44 Q2015.84 1468.44 2019.04 1471.12 Q2022.23 1473.81 2022.23 1478.3 Q2022.23 1480.43 2021.42 1482.35 Q2020.63 1484.25 2018.53 1486.84 Q2017.95 1487.51 2014.85 1490.73 Q2011.74 1493.92 2006.1 1499.69 Z" fill="#000000" fill-rule="evenodd" fill-opacity="1" /><path clip-path="url(#clip070)" d="M2042.23 1472.14 Q2038.62 1472.14 2036.79 1475.71 Q2034.99 1479.25 2034.99 1486.38 Q2034.99 1493.48 2036.79 1497.05 Q2038.62 1500.59 2042.23 1500.59 Q2045.86 1500.59 2047.67 1497.05 Q2049.5 1493.48 2049.5 1486.38 Q2049.5 1479.25 2047.67 1475.71 Q2045.86 1472.14 2042.23 1472.14 M2042.23 1468.44 Q2048.04 1468.44 2051.1 1473.04 Q2054.18 1477.63 2054.18 1486.38 Q2054.18 1495.1 2051.1 1499.71 Q2048.04 1504.29 2042.23 1504.29 Q2036.42 1504.29 2033.34 1499.71 Q2030.29 1495.1 2030.29 1486.38 Q2030.29 1477.63 2033.34 1473.04 Q2036.42 1468.44 2042.23 1468.44 Z" fill="#000000" fill-rule="evenodd" fill-opacity="1" /><path clip-path="url(#clip070)" d="M2059.64 1488.74 L2072.11 1488.74 L2072.11 1492.53 L2059.64 1492.53 L2059.64 1488.74 Z" fill="#000000" fill-rule="evenodd" fill-opacity="1" /><path clip-path="url(#clip070)" d="M2080.31 1499.69 L2087.95 1499.69 L2087.95 1473.32 L2079.64 1474.99 L2079.64 1470.73 L2087.9 1469.06 L2092.58 1469.06 L2092.58 1499.69 L2100.22 1499.69 L2100.22 1503.62 L2080.31 1503.62 L2080.31 1499.69 Z" fill="#000000" fill-rule="evenodd" fill-opacity="1" /><path clip-path="url(#clip070)" d="M2113.69 1499.69 L2130.01 1499.69 L2130.01 1503.62 L2108.06 1503.62 L2108.06 1499.69 Q2110.73 1496.93 2115.31 1492.3 Q2119.92 1487.65 2121.1 1486.31 Q2123.34 1483.78 2124.22 1482.05 Q2125.12 1480.29 2125.12 1478.6 Q2125.12 1475.84 2123.18 1474.11 Q2121.26 1472.37 2118.16 1472.37 Q2115.96 1472.37 2113.5 1473.14 Q2111.07 1473.9 2108.3 1475.45 L2108.3 1470.73 Q2111.12 1469.59 2113.57 1469.02 Q2116.03 1468.44 2118.06 1468.44 Q2123.43 1468.44 2126.63 1471.12 Q2129.82 1473.81 2129.82 1478.3 Q2129.82 1480.43 2129.01 1482.35 Q2128.23 1484.25 2126.12 1486.84 Q2125.54 1487.51 2122.44 1490.73 Q2119.34 1493.92 2113.69 1499.69 Z" fill="#000000" fill-rule="evenodd" fill-opacity="1" /><path clip-path="url(#clip070)" d="M2137.07 1488.74 L2149.54 1488.74 L2149.54 1492.53 L2137.07 1492.53 L2137.07 1488.74 Z" fill="#000000" fill-rule="evenodd" fill-opacity="1" /><path clip-path="url(#clip070)" d="M2166.93 1472.14 Q2163.32 1472.14 2161.49 1475.71 Q2159.68 1479.25 2159.68 1486.38 Q2159.68 1493.48 2161.49 1497.05 Q2163.32 1500.59 2166.93 1500.59 Q2170.56 1500.59 2172.37 1497.05 Q2174.2 1493.48 2174.2 1486.38 Q2174.2 1479.25 2172.37 1475.71 Q2170.56 1472.14 2166.93 1472.14 M2166.93 1468.44 Q2172.74 1468.44 2175.79 1473.04 Q2178.87 1477.63 2178.87 1486.38 Q2178.87 1495.1 2175.79 1499.71 Q2172.74 1504.29 2166.93 1504.29 Q2161.12 1504.29 2158.04 1499.71 Q2154.98 1495.1 2154.98 1486.38 Q2154.98 1477.63 2158.04 1473.04 Q2161.12 1468.44 2166.93 1468.44 Z" fill="#000000" fill-rule="evenodd" fill-opacity="1" /><path clip-path="url(#clip070)" d="M2187.9 1499.69 L2195.54 1499.69 L2195.54 1473.32 L2187.23 1474.99 L2187.23 1470.73 L2195.49 1469.06 L2200.17 1469.06 L2200.17 1499.69 L2207.81 1499.69 L2207.81 1503.62 L2187.9 1503.62 L2187.9 1499.69 Z" fill="#000000" fill-rule="evenodd" fill-opacity="1" /><path clip-path="url(#clip070)" d="M1305.03 1539.82 Q1305.03 1540.72 1304.61 1540.95 Q1304.19 1541.14 1303.03 1541.14 L1296.84 1541.14 L1291.95 1560.59 Q1291.56 1562.3 1291.56 1563.75 Q1291.56 1565.36 1292.05 1566.07 Q1292.56 1566.78 1293.62 1566.78 Q1295.72 1566.78 1297.97 1564.88 Q1300.26 1562.98 1302.19 1558.34 Q1302.45 1557.73 1302.58 1557.6 Q1302.74 1557.44 1303.16 1557.44 Q1303.96 1557.44 1303.96 1558.08 Q1303.96 1558.31 1303.51 1559.34 Q1303.09 1560.37 1302.16 1561.88 Q1301.26 1563.4 1300.07 1564.81 Q1298.91 1566.23 1297.13 1567.26 Q1295.36 1568.26 1293.46 1568.26 Q1290.79 1568.26 1289.08 1566.55 Q1287.41 1564.84 1287.41 1562.17 Q1287.41 1561.3 1288.08 1558.53 Q1288.76 1555.73 1292.43 1541.14 L1286.6 1541.14 Q1285.8 1541.14 1285.48 1541.11 Q1285.19 1541.08 1284.96 1540.92 Q1284.77 1540.72 1284.77 1540.34 Q1284.77 1539.72 1285.03 1539.47 Q1285.28 1539.18 1285.6 1539.14 Q1285.96 1539.08 1286.76 1539.08 L1292.95 1539.08 L1295.52 1528.61 Q1295.78 1527.58 1296.43 1527 Q1297.1 1526.39 1297.49 1526.33 Q1297.88 1526.23 1298.17 1526.23 Q1299.03 1526.23 1299.55 1526.71 Q1300.07 1527.16 1300.07 1528 Q1300.07 1528.45 1297.36 1539.08 L1303.16 1539.08 Q1303.9 1539.08 1304.19 1539.11 Q1304.51 1539.14 1304.77 1539.31 Q1305.03 1539.47 1305.03 1539.82 Z" fill="#000000" fill-rule="evenodd" fill-opacity="1" /><polyline clip-path="url(#clip072)" style="stroke:#000000; stroke-linecap:butt; stroke-linejoin:round; stroke-width:2; stroke-opacity:0.1; fill:none" points="
  240.352,1419.75 2352.76,1419.75 
  "/>
<polyline clip-path="url(#clip072)" style="stroke:#000000; stroke-linecap:butt; stroke-linejoin:round; stroke-width:2; stroke-opacity:0.1; fill:none" points="
  240.352,1031.68 2352.76,1031.68 
  "/>
<polyline clip-path="url(#clip072)" style="stroke:#000000; stroke-linecap:butt; stroke-linejoin:round; stroke-width:2; stroke-opacity:0.1; fill:none" points="
  240.352,643.607 2352.76,643.607 
  "/>
<polyline clip-path="url(#clip072)" style="stroke:#000000; stroke-linecap:butt; stroke-linejoin:round; stroke-width:2; stroke-opacity:0.1; fill:none" points="
  240.352,255.536 2352.76,255.536 
  "/>
<polyline clip-path="url(#clip070)" style="stroke:#000000; stroke-linecap:butt; stroke-linejoin:round; stroke-width:4; stroke-opacity:1; fill:none" points="
  240.352,1442.95 240.352,47.2441 
  "/>
<polyline clip-path="url(#clip070)" style="stroke:#000000; stroke-linecap:butt; stroke-linejoin:round; stroke-width:4; stroke-opacity:1; fill:none" points="
  240.352,1419.75 265.701,1419.75 
  "/>
<polyline clip-path="url(#clip070)" style="stroke:#000000; stroke-linecap:butt; stroke-linejoin:round; stroke-width:4; stroke-opacity:1; fill:none" points="
  240.352,1031.68 265.701,1031.68 
  "/>
<polyline clip-path="url(#clip070)" style="stroke:#000000; stroke-linecap:butt; stroke-linejoin:round; stroke-width:4; stroke-opacity:1; fill:none" points="
  240.352,643.607 265.701,643.607 
  "/>
<polyline clip-path="url(#clip070)" style="stroke:#000000; stroke-linecap:butt; stroke-linejoin:round; stroke-width:4; stroke-opacity:1; fill:none" points="
  240.352,255.536 265.701,255.536 
  "/>
<path clip-path="url(#clip070)" d="M157.177 1405.55 Q153.566 1405.55 151.737 1409.11 Q149.931 1412.65 149.931 1419.78 Q149.931 1426.89 151.737 1430.45 Q153.566 1434 157.177 1434 Q160.811 1434 162.616 1430.45 Q164.445 1426.89 164.445 1419.78 Q164.445 1412.65 162.616 1409.11 Q160.811 1405.55 157.177 1405.55 M157.177 1401.84 Q162.987 1401.84 166.042 1406.45 Q169.121 1411.03 169.121 1419.78 Q169.121 1428.51 166.042 1433.12 Q162.987 1437.7 157.177 1437.7 Q151.366 1437.7 148.288 1433.12 Q145.232 1428.51 145.232 1419.78 Q145.232 1411.03 148.288 1406.45 Q151.366 1401.84 157.177 1401.84 Z" fill="#000000" fill-rule="evenodd" fill-opacity="1" /><path clip-path="url(#clip070)" d="M176.922 1402.47 L181.598 1402.47 L181.598 1417.07 L197.107 1402.47 L203.125 1402.47 L185.973 1418.58 L204.352 1437.03 L198.195 1437.03 L181.598 1420.38 L181.598 1437.03 L176.922 1437.03 L176.922 1402.47 Z" fill="#000000" fill-rule="evenodd" fill-opacity="1" /><path clip-path="url(#clip070)" d="M121.043 1045.02 L137.362 1045.02 L137.362 1048.96 L115.418 1048.96 L115.418 1045.02 Q118.08 1042.27 122.663 1037.64 Q127.269 1032.99 128.45 1031.64 Q130.695 1029.12 131.575 1027.38 Q132.478 1025.62 132.478 1023.93 Q132.478 1021.18 130.533 1019.44 Q128.612 1017.71 125.51 1017.71 Q123.311 1017.71 120.857 1018.47 Q118.427 1019.24 115.649 1020.79 L115.649 1016.06 Q118.473 1014.93 120.927 1014.35 Q123.38 1013.77 125.418 1013.77 Q130.788 1013.77 133.982 1016.46 Q137.177 1019.14 137.177 1023.63 Q137.177 1025.76 136.367 1027.68 Q135.579 1029.58 133.473 1032.17 Q132.894 1032.85 129.792 1036.06 Q126.691 1039.26 121.043 1045.02 Z" fill="#000000" fill-rule="evenodd" fill-opacity="1" /><path clip-path="url(#clip070)" d="M157.177 1017.48 Q153.566 1017.48 151.737 1021.04 Q149.931 1024.58 149.931 1031.71 Q149.931 1038.82 151.737 1042.38 Q153.566 1045.92 157.177 1045.92 Q160.811 1045.92 162.616 1042.38 Q164.445 1038.82 164.445 1031.71 Q164.445 1024.58 162.616 1021.04 Q160.811 1017.48 157.177 1017.48 M157.177 1013.77 Q162.987 1013.77 166.042 1018.38 Q169.121 1022.96 169.121 1031.71 Q169.121 1040.44 166.042 1045.05 Q162.987 1049.63 157.177 1049.63 Q151.366 1049.63 148.288 1045.05 Q145.232 1040.44 145.232 1031.71 Q145.232 1022.96 148.288 1018.38 Q151.366 1013.77 157.177 1013.77 Z" fill="#000000" fill-rule="evenodd" fill-opacity="1" /><path clip-path="url(#clip070)" d="M176.922 1014.4 L181.598 1014.4 L181.598 1029 L197.107 1014.4 L203.125 1014.4 L185.973 1030.51 L204.352 1048.96 L198.195 1048.96 L181.598 1032.31 L181.598 1048.96 L176.922 1048.96 L176.922 1014.4 Z" fill="#000000" fill-rule="evenodd" fill-opacity="1" /><path clip-path="url(#clip070)" d="M129.862 630.401 L118.056 648.85 L129.862 648.85 L129.862 630.401 M128.635 626.327 L134.515 626.327 L134.515 648.85 L139.445 648.85 L139.445 652.739 L134.515 652.739 L134.515 660.887 L129.862 660.887 L129.862 652.739 L114.26 652.739 L114.26 648.225 L128.635 626.327 Z" fill="#000000" fill-rule="evenodd" fill-opacity="1" /><path clip-path="url(#clip070)" d="M157.177 629.406 Q153.566 629.406 151.737 632.97 Q149.931 636.512 149.931 643.642 Q149.931 650.748 151.737 654.313 Q153.566 657.854 157.177 657.854 Q160.811 657.854 162.616 654.313 Q164.445 650.748 164.445 643.642 Q164.445 636.512 162.616 632.97 Q160.811 629.406 157.177 629.406 M157.177 625.702 Q162.987 625.702 166.042 630.308 Q169.121 634.892 169.121 643.642 Q169.121 652.368 166.042 656.975 Q162.987 661.558 157.177 661.558 Q151.366 661.558 148.288 656.975 Q145.232 652.368 145.232 643.642 Q145.232 634.892 148.288 630.308 Q151.366 625.702 157.177 625.702 Z" fill="#000000" fill-rule="evenodd" fill-opacity="1" /><path clip-path="url(#clip070)" d="M176.922 626.327 L181.598 626.327 L181.598 640.933 L197.107 626.327 L203.125 626.327 L185.973 642.438 L204.352 660.887 L198.195 660.887 L181.598 644.243 L181.598 660.887 L176.922 660.887 L176.922 626.327 Z" fill="#000000" fill-rule="evenodd" fill-opacity="1" /><path clip-path="url(#clip070)" d="M127.593 253.673 Q124.445 253.673 122.593 255.826 Q120.765 257.979 120.765 261.729 Q120.765 265.455 122.593 267.631 Q124.445 269.784 127.593 269.784 Q130.742 269.784 132.57 267.631 Q134.422 265.455 134.422 261.729 Q134.422 257.979 132.57 255.826 Q130.742 253.673 127.593 253.673 M136.876 239.02 L136.876 243.28 Q135.117 242.446 133.311 242.006 Q131.529 241.567 129.769 241.567 Q125.14 241.567 122.686 244.692 Q120.255 247.817 119.908 254.136 Q121.274 252.122 123.334 251.057 Q125.394 249.969 127.871 249.969 Q133.08 249.969 136.089 253.141 Q139.121 256.289 139.121 261.729 Q139.121 267.053 135.973 270.27 Q132.825 273.488 127.593 273.488 Q121.598 273.488 118.427 268.904 Q115.256 264.298 115.256 255.571 Q115.256 247.377 119.144 242.516 Q123.033 237.631 129.584 237.631 Q131.343 237.631 133.126 237.979 Q134.931 238.326 136.876 239.02 Z" fill="#000000" fill-rule="evenodd" fill-opacity="1" /><path clip-path="url(#clip070)" d="M157.177 241.335 Q153.566 241.335 151.737 244.9 Q149.931 248.442 149.931 255.571 Q149.931 262.678 151.737 266.242 Q153.566 269.784 157.177 269.784 Q160.811 269.784 162.616 266.242 Q164.445 262.678 164.445 255.571 Q164.445 248.442 162.616 244.9 Q160.811 241.335 157.177 241.335 M157.177 237.631 Q162.987 237.631 166.042 242.238 Q169.121 246.821 169.121 255.571 Q169.121 264.298 166.042 268.904 Q162.987 273.488 157.177 273.488 Q151.366 273.488 148.288 268.904 Q145.232 264.298 145.232 255.571 Q145.232 246.821 148.288 242.238 Q151.366 237.631 157.177 237.631 Z" fill="#000000" fill-rule="evenodd" fill-opacity="1" /><path clip-path="url(#clip070)" d="M176.922 238.256 L181.598 238.256 L181.598 252.863 L197.107 238.256 L203.125 238.256 L185.973 254.367 L204.352 272.816 L198.195 272.816 L181.598 256.173 L181.598 272.816 L176.922 272.816 L176.922 238.256 Z" fill="#000000" fill-rule="evenodd" fill-opacity="1" /><path clip-path="url(#clip070)" d="M28.3562 962.152 L28.3562 956.295 L64.0042 956.295 L64.0042 962.152 L28.3562 962.152 M14.479 962.152 L14.479 956.295 L21.895 956.295 L21.895 962.152 L14.479 962.152 Z" fill="#000000" fill-rule="evenodd" fill-opacity="1" /><path clip-path="url(#clip070)" d="M42.4881 914.409 L64.0042 914.409 L64.0042 920.265 L42.679 920.265 Q37.6183 920.265 35.1038 922.239 Q32.5894 924.212 32.5894 928.159 Q32.5894 932.901 35.6131 935.638 Q38.6368 938.376 43.8567 938.376 L64.0042 938.376 L64.0042 944.264 L28.3562 944.264 L28.3562 938.376 L33.8944 938.376 Q30.6797 936.275 29.0883 933.442 Q27.4968 930.578 27.4968 926.854 Q27.4968 920.711 31.3163 917.56 Q35.1038 914.409 42.4881 914.409 Z" fill="#000000" fill-rule="evenodd" fill-opacity="1" /><path clip-path="url(#clip070)" d="M14.479 884.681 L19.3487 884.681 L19.3487 890.283 Q19.3487 893.434 20.6219 894.675 Q21.895 895.885 25.2052 895.885 L28.3562 895.885 L28.3562 886.241 L32.9077 886.241 L32.9077 895.885 L64.0042 895.885 L64.0042 901.773 L32.9077 901.773 L32.9077 907.375 L28.3562 907.375 L28.3562 901.773 L25.8736 901.773 Q19.9216 901.773 17.2162 899.004 Q14.479 896.235 14.479 890.219 L14.479 884.681 Z" fill="#000000" fill-rule="evenodd" fill-opacity="1" /><path clip-path="url(#clip070)" d="M44.7161 849.288 L47.5806 849.288 L47.5806 876.215 Q53.6281 875.833 56.8109 872.586 Q59.9619 869.308 59.9619 863.483 Q59.9619 860.109 59.1344 856.958 Q58.3069 853.775 56.6518 850.656 L62.1899 850.656 Q63.5267 853.807 64.227 857.117 Q64.9272 860.428 64.9272 863.833 Q64.9272 872.363 59.9619 877.36 Q54.9967 882.326 46.5303 882.326 Q37.7774 882.326 32.6531 877.615 Q27.4968 872.873 27.4968 864.852 Q27.4968 857.659 32.1438 853.489 Q36.7589 849.288 44.7161 849.288 M42.9973 855.144 Q38.1912 855.208 35.3266 857.85 Q32.4621 860.459 32.4621 864.788 Q32.4621 869.69 35.2312 872.65 Q38.0002 875.578 43.0292 876.024 L42.9973 855.144 Z" fill="#000000" fill-rule="evenodd" fill-opacity="1" /><path clip-path="url(#clip070)" d="M29.7248 814.022 L35.1993 814.022 Q33.8307 816.504 33.1623 819.019 Q32.4621 821.501 32.4621 824.048 Q32.4621 829.745 36.0905 832.896 Q39.6872 836.047 46.212 836.047 Q52.7369 836.047 56.3653 832.896 Q59.9619 829.745 59.9619 824.048 Q59.9619 821.501 59.2935 819.019 Q58.5933 816.504 57.2247 814.022 L62.6355 814.022 Q63.7814 816.472 64.3543 819.114 Q64.9272 821.724 64.9272 824.684 Q64.9272 832.737 59.8664 837.479 Q54.8057 842.222 46.212 842.222 Q37.491 842.222 32.4939 837.447 Q27.4968 832.641 27.4968 824.302 Q27.4968 821.597 28.0697 819.019 Q28.6108 816.441 29.7248 814.022 Z" fill="#000000" fill-rule="evenodd" fill-opacity="1" /><path clip-path="url(#clip070)" d="M18.2347 798.044 L28.3562 798.044 L28.3562 785.981 L32.9077 785.981 L32.9077 798.044 L52.2594 798.044 Q56.6199 798.044 57.8613 796.866 Q59.1026 795.657 59.1026 791.996 L59.1026 785.981 L64.0042 785.981 L64.0042 791.996 Q64.0042 798.776 61.4897 801.354 Q58.9434 803.932 52.2594 803.932 L32.9077 803.932 L32.9077 808.229 L28.3562 808.229 L28.3562 803.932 L18.2347 803.932 L18.2347 798.044 Z" fill="#000000" fill-rule="evenodd" fill-opacity="1" /><path clip-path="url(#clip070)" d="M44.7161 747.786 L47.5806 747.786 L47.5806 774.713 Q53.6281 774.331 56.8109 771.085 Q59.9619 767.807 59.9619 761.982 Q59.9619 758.608 59.1344 755.457 Q58.3069 752.274 56.6518 749.155 L62.1899 749.155 Q63.5267 752.306 64.227 755.616 Q64.9272 758.926 64.9272 762.332 Q64.9272 770.862 59.9619 775.859 Q54.9967 780.824 46.5303 780.824 Q37.7774 780.824 32.6531 776.114 Q27.4968 771.371 27.4968 763.351 Q27.4968 756.157 32.1438 751.988 Q36.7589 747.786 44.7161 747.786 M42.9973 753.643 Q38.1912 753.707 35.3266 756.348 Q32.4621 758.958 32.4621 763.287 Q32.4621 768.189 35.2312 771.149 Q38.0002 774.077 43.0292 774.522 L42.9973 753.643 Z" fill="#000000" fill-rule="evenodd" fill-opacity="1" /><path clip-path="url(#clip070)" d="M33.7671 714.717 L14.479 714.717 L14.479 708.86 L64.0042 708.86 L64.0042 714.717 L58.657 714.717 Q61.8398 716.563 63.3994 719.395 Q64.9272 722.196 64.9272 726.143 Q64.9272 732.604 59.771 736.678 Q54.6147 740.721 46.212 740.721 Q37.8093 740.721 32.6531 736.678 Q27.4968 732.604 27.4968 726.143 Q27.4968 722.196 29.0564 719.395 Q30.5842 716.563 33.7671 714.717 M46.212 734.673 Q52.6732 734.673 56.3653 732.031 Q60.0256 729.358 60.0256 724.711 Q60.0256 720.064 56.3653 717.39 Q52.6732 714.717 46.212 714.717 Q39.7508 714.717 36.0905 717.39 Q32.3984 720.064 32.3984 724.711 Q32.3984 729.358 36.0905 732.031 Q39.7508 734.673 46.212 734.673 Z" fill="#000000" fill-rule="evenodd" fill-opacity="1" /><path clip-path="url(#clip070)" d="M33.7671 652.619 L14.479 652.619 L14.479 646.763 L64.0042 646.763 L64.0042 652.619 L58.657 652.619 Q61.8398 654.465 63.3994 657.298 Q64.9272 660.099 64.9272 664.046 Q64.9272 670.507 59.771 674.581 Q54.6147 678.623 46.212 678.623 Q37.8093 678.623 32.6531 674.581 Q27.4968 670.507 27.4968 664.046 Q27.4968 660.099 29.0564 657.298 Q30.5842 654.465 33.7671 652.619 M46.212 672.576 Q52.6732 672.576 56.3653 669.934 Q60.0256 667.26 60.0256 662.613 Q60.0256 657.966 56.3653 655.293 Q52.6732 652.619 46.212 652.619 Q39.7508 652.619 36.0905 655.293 Q32.3984 657.966 32.3984 662.613 Q32.3984 667.26 36.0905 669.934 Q39.7508 672.576 46.212 672.576 Z" fill="#000000" fill-rule="evenodd" fill-opacity="1" /><path clip-path="url(#clip070)" d="M46.0847 618.499 Q46.0847 625.597 47.7079 628.334 Q49.3312 631.071 53.2461 631.071 Q56.3653 631.071 58.2114 629.034 Q60.0256 626.965 60.0256 623.432 Q60.0256 618.563 56.5881 615.634 Q53.1188 612.674 47.3897 612.674 L46.0847 612.674 L46.0847 618.499 M43.6657 606.818 L64.0042 606.818 L64.0042 612.674 L58.5933 612.674 Q61.8398 614.68 63.3994 617.671 Q64.9272 620.663 64.9272 624.992 Q64.9272 630.467 61.8716 633.713 Q58.7843 636.928 53.6281 636.928 Q47.6125 636.928 44.5569 632.917 Q41.5014 628.875 41.5014 620.886 L41.5014 612.674 L40.9285 612.674 Q36.8862 612.674 34.6901 615.348 Q32.4621 617.99 32.4621 622.796 Q32.4621 625.851 33.1941 628.748 Q33.9262 631.644 35.3903 634.318 L29.9795 634.318 Q28.7381 631.103 28.1334 628.079 Q27.4968 625.056 27.4968 622.191 Q27.4968 614.457 31.5072 610.637 Q35.5176 606.818 43.6657 606.818 Z" fill="#000000" fill-rule="evenodd" fill-opacity="1" /><path clip-path="url(#clip070)" d="M28.3562 594.755 L28.3562 588.898 L64.0042 588.898 L64.0042 594.755 L28.3562 594.755 M14.479 594.755 L14.479 588.898 L21.895 588.898 L21.895 594.755 L14.479 594.755 Z" fill="#000000" fill-rule="evenodd" fill-opacity="1" /><path clip-path="url(#clip070)" d="M14.479 576.644 L14.479 570.788 L64.0042 570.788 L64.0042 576.644 L14.479 576.644 Z" fill="#000000" fill-rule="evenodd" fill-opacity="1" /><path clip-path="url(#clip070)" d="M67.3143 543.702 Q73.68 546.185 75.6216 548.54 Q77.5631 550.895 77.5631 554.842 L77.5631 559.521 L72.6615 559.521 L72.6615 556.083 Q72.6615 553.664 71.5157 552.327 Q70.3699 550.991 66.1048 549.367 L63.4312 548.317 L28.3562 562.735 L28.3562 556.529 L56.238 545.389 L28.3562 534.249 L28.3562 528.042 L67.3143 543.702 Z" fill="#000000" fill-rule="evenodd" fill-opacity="1" /><polyline clip-path="url(#clip072)" style="stroke:#009af9; stroke-linecap:butt; stroke-linejoin:round; stroke-width:4; stroke-opacity:1; fill:none" points="
  300.137,1397.1 307.437,1398.13 314.737,1397.06 322.037,1399.57 329.336,1403.45 336.636,1384.41 343.936,1377.58 351.236,1382.47 358.535,1385.58 365.835,1399.3 
  373.135,1391.32 380.435,1392.56 387.734,1382.53 395.034,1356.82 402.334,1379.33 409.634,1355.79 416.933,1365.84 424.233,1382.3 431.533,1384.51 438.833,1366.91 
  446.132,1365.83 453.432,1344.6 460.732,1343.82 468.032,1316.97 475.331,1347.66 482.631,1339.32 489.931,1298.79 497.231,1301.11 504.53,1275.93 511.83,1313.88 
  519.13,1322.79 526.43,1337.53 533.729,1284.68 541.029,1271.6 548.329,1215.14 555.629,1230.91 562.929,1217.87 570.228,1222.7 577.528,1298.26 584.828,1298.98 
  592.128,1233.24 599.427,1192.86 606.727,1145.5 614.027,1120.02 621.327,1146.95 628.626,1271.04 635.926,1137.25 643.226,1080.38 650.526,1028.71 657.825,1072.46 
  665.125,990.639 672.425,1089.81 679.725,1138.96 687.024,1171.25 694.324,1102.95 701.624,1027.8 708.924,869.91 716.223,897.987 723.523,792.626 730.823,1163.99 
  738.123,1129.43 745.422,800.64 752.722,913.607 760.022,799.766 767.322,796.836 774.621,958.138 781.921,1070.74 789.221,1083.35 796.521,804.656 803.82,764.103 
  811.12,863.138 818.42,948.475 825.72,1010.37 833.02,1091.34 840.319,942.79 847.619,701.449 854.919,819.694 862.219,932.331 869.518,330.977 876.818,859.452 
  884.118,1098.23 891.418,905.38 898.717,652.028 906.017,623.388 913.317,610.194 920.617,548.821 927.916,703.37 935.216,782.342 942.516,1000.98 949.816,649.797 
  957.115,511.178 964.415,558.212 971.715,588.229 979.015,773.669 986.314,922.086 993.614,945.176 1000.91,513.72 1008.21,541.7 1015.51,586.134 1022.81,559.958 
  1030.11,741.653 1037.41,960.699 1044.71,975.543 1052.01,586.91 1059.31,640.852 1066.61,572.144 1073.91,748.037 1081.21,920.573 1088.51,964.949 1095.81,978.259 
  1103.11,509.102 1110.41,136.205 1117.71,307.421 1125.01,315.629 1132.31,497.401 1139.61,1011.38 1146.91,844.666 1154.21,371.88 1161.51,343.803 1168.81,293.276 
  1176.11,386.239 1183.41,613.706 1190.71,952.783 1198.01,1029.62 1205.31,327.679 1212.61,330.473 1219.91,371.569 1227.21,469.635 1234.51,511.139 1241.81,978.706 
  1249.11,935.707 1256.41,431.546 1263.71,331.113 1271,241.702 1278.3,463.562 1285.6,701.643 1292.9,976.338 1300.2,943.372 1307.5,463.853 1314.8,476.678 
  1322.1,585.901 1329.4,792.509 1336.7,528.971 1344,995.412 1351.3,963.435 1358.6,521.229 1365.9,485.429 1373.2,599.755 1380.5,564.285 1387.8,696.171 
  1395.1,1137.74 1402.4,445.206 1409.7,559.609 1417,518.396 1424.3,511.488 1431.6,657.927 1438.9,757.428 1446.2,1141.52 1453.5,1228.64 1460.8,1057.66 
  1468.1,698.674 1475.4,629.811 1482.7,611.921 1490,822.119 1497.3,1147.71 1504.6,1019.82 1511.9,749.317 1519.2,696.055 1526.5,713.363 1533.8,648.826 
  1541.1,846.218 1548.4,1120.12 1555.7,1077.57 1563,741.265 1570.29,784.748 1577.59,798.563 1584.89,792.801 1592.19,940.151 1599.49,1152.41 1606.79,1092.2 
  1614.09,782.381 1621.39,781.352 1628.69,725.975 1635.99,782.42 1643.29,973.311 1650.59,1250.65 1657.89,914.228 1665.19,808.032 1672.49,819.442 1679.79,899.151 
  1687.09,881.63 1694.39,959.03 1701.69,1183.2 1708.99,1252.18 1716.29,1160.59 1723.59,879.418 1730.89,829.376 1738.19,864.885 1745.49,1016.62 1752.79,1185.92 
  1760.09,1098.06 1767.39,958.604 1774.69,918.302 1781.99,938.987 1789.29,837.623 1796.59,935.009 1803.89,1192.78 1811.19,1047.78 1818.49,837.991 1825.79,869.638 
  1833.09,901.674 1840.39,947.214 1847.69,1164.2 1854.99,1222.06 1862.29,1259.69 1869.58,1162.3 1876.88,941.839 1884.18,957.071 1891.48,1027.87 1898.78,1075.37 
  1906.08,1215.97 1913.38,1159.47 1920.68,518.959 1927.98,910.522 1935.28,761.541 1942.58,668.482 1949.88,909.862 1957.18,1149.92 1964.48,1114.26 1971.78,731.117 
  1979.08,745.437 1986.38,723.899 1993.68,667.473 2000.98,833.334 2008.28,1071.92 2015.58,1067.42 2022.88,749.686 2030.18,554.137 2037.48,626.105 2044.78,769.575 
  2052.08,420.757 2059.38,1012.04 2066.68,959.981 2073.98,411.056 2081.28,479.162 2088.58,446.875 2095.88,494.762 2103.18,638.135 2110.48,906.913 2117.78,895.387 
  2125.08,492.337 2132.38,360.49 2139.68,380.689 2146.98,400.112 2154.28,598.494 2161.58,992.308 2168.88,888.479 2176.17,487.758 2183.47,136.709 2190.77,86.7452 
  2198.07,394.213 2205.37,483.683 2212.67,944.672 2219.97,883.337 2227.27,320.247 2234.57,533.414 2241.87,290.249 2249.17,1008.72 2256.47,1079.55 2263.77,1077.97 
  2271.07,887.373 2278.37,325.952 2285.67,340.912 2292.97,362.857 
  "/>
</svg>
