<?xml version="1.0" encoding="utf-8"?>
<svg xmlns="http://www.w3.org/2000/svg" xmlns:xlink="http://www.w3.org/1999/xlink" width="600" height="400" viewBox="0 0 2400 1600">
<defs>
  <clipPath id="clip670">
    <rect x="0" y="0" width="2400" height="1600"/>
  </clipPath>
</defs>
<path clip-path="url(#clip670)" d="
M0 1600 L2400 1600 L2400 0 L0 0  Z
  " fill="#ffffff" fill-rule="evenodd" fill-opacity="1"/>
<defs>
  <clipPath id="clip671">
    <rect x="480" y="0" width="1681" height="1600"/>
  </clipPath>
</defs>
<path clip-path="url(#clip670)" d="
M246.598 1486.45 L2352.76 1486.45 L2352.76 47.2441 L246.598 47.2441  Z
  " fill="#ffffff" fill-rule="evenodd" fill-opacity="1"/>
<defs>
  <clipPath id="clip672">
    <rect x="246" y="47" width="2107" height="1440"/>
  </clipPath>
</defs>
<polyline clip-path="url(#clip672)" style="stroke:#000000; stroke-linecap:butt; stroke-linejoin:round; stroke-width:2; stroke-opacity:0.1; fill:none" points="
  306.009,1486.45 306.009,47.2441 
  "/>
<polyline clip-path="url(#clip672)" style="stroke:#000000; stroke-linecap:butt; stroke-linejoin:round; stroke-width:2; stroke-opacity:0.1; fill:none" points="
  802.843,1486.45 802.843,47.2441 
  "/>
<polyline clip-path="url(#clip672)" style="stroke:#000000; stroke-linecap:butt; stroke-linejoin:round; stroke-width:2; stroke-opacity:0.1; fill:none" points="
  1299.68,1486.45 1299.68,47.2441 
  "/>
<polyline clip-path="url(#clip672)" style="stroke:#000000; stroke-linecap:butt; stroke-linejoin:round; stroke-width:2; stroke-opacity:0.1; fill:none" points="
  1796.51,1486.45 1796.51,47.2441 
  "/>
<polyline clip-path="url(#clip672)" style="stroke:#000000; stroke-linecap:butt; stroke-linejoin:round; stroke-width:2; stroke-opacity:0.1; fill:none" points="
  2293.35,1486.45 2293.35,47.2441 
  "/>
<polyline clip-path="url(#clip670)" style="stroke:#000000; stroke-linecap:butt; stroke-linejoin:round; stroke-width:4; stroke-opacity:1; fill:none" points="
  246.598,1486.45 2352.76,1486.45 
  "/>
<polyline clip-path="url(#clip670)" style="stroke:#000000; stroke-linecap:butt; stroke-linejoin:round; stroke-width:4; stroke-opacity:1; fill:none" points="
  306.009,1486.45 306.009,1469.18 
  "/>
<polyline clip-path="url(#clip670)" style="stroke:#000000; stroke-linecap:butt; stroke-linejoin:round; stroke-width:4; stroke-opacity:1; fill:none" points="
  802.843,1486.45 802.843,1469.18 
  "/>
<polyline clip-path="url(#clip670)" style="stroke:#000000; stroke-linecap:butt; stroke-linejoin:round; stroke-width:4; stroke-opacity:1; fill:none" points="
  1299.68,1486.45 1299.68,1469.18 
  "/>
<polyline clip-path="url(#clip670)" style="stroke:#000000; stroke-linecap:butt; stroke-linejoin:round; stroke-width:4; stroke-opacity:1; fill:none" points="
  1796.51,1486.45 1796.51,1469.18 
  "/>
<polyline clip-path="url(#clip670)" style="stroke:#000000; stroke-linecap:butt; stroke-linejoin:round; stroke-width:4; stroke-opacity:1; fill:none" points="
  2293.35,1486.45 2293.35,1469.18 
  "/>
<path clip-path="url(#clip670)" d="M260.071 1530.29 L289.747 1530.29 L289.747 1534.23 L260.071 1534.23 L260.071 1530.29 Z" fill="#000000" fill-rule="evenodd" fill-opacity="1" /><path clip-path="url(#clip670)" d="M299.886 1512.56 L318.242 1512.56 L318.242 1516.5 L304.168 1516.5 L304.168 1524.97 Q305.187 1524.62 306.205 1524.46 Q307.224 1524.27 308.242 1524.27 Q314.029 1524.27 317.409 1527.44 Q320.789 1530.62 320.789 1536.03 Q320.789 1541.61 317.316 1544.71 Q313.844 1547.79 307.525 1547.79 Q305.349 1547.79 303.08 1547.42 Q300.835 1547.05 298.428 1546.31 L298.428 1541.61 Q300.511 1542.74 302.733 1543.3 Q304.955 1543.86 307.432 1543.86 Q311.437 1543.86 313.775 1541.75 Q316.113 1539.64 316.113 1536.03 Q316.113 1532.42 313.775 1530.31 Q311.437 1528.21 307.432 1528.21 Q305.557 1528.21 303.682 1528.62 Q301.83 1529.04 299.886 1529.92 L299.886 1512.56 Z" fill="#000000" fill-rule="evenodd" fill-opacity="1" /><path clip-path="url(#clip670)" d="M340.001 1515.64 Q336.39 1515.64 334.562 1519.2 Q332.756 1522.75 332.756 1529.87 Q332.756 1536.98 334.562 1540.55 Q336.39 1544.09 340.001 1544.09 Q343.636 1544.09 345.441 1540.55 Q347.27 1536.98 347.27 1529.87 Q347.27 1522.75 345.441 1519.2 Q343.636 1515.64 340.001 1515.64 M340.001 1511.93 Q345.812 1511.93 348.867 1516.54 Q351.946 1521.12 351.946 1529.87 Q351.946 1538.6 348.867 1543.21 Q345.812 1547.79 340.001 1547.79 Q334.191 1547.79 331.113 1543.21 Q328.057 1538.6 328.057 1529.87 Q328.057 1521.12 331.113 1516.54 Q334.191 1511.93 340.001 1511.93 Z" fill="#000000" fill-rule="evenodd" fill-opacity="1" /><path clip-path="url(#clip670)" d="M802.843 1515.64 Q799.232 1515.64 797.403 1519.2 Q795.597 1522.75 795.597 1529.87 Q795.597 1536.98 797.403 1540.55 Q799.232 1544.09 802.843 1544.09 Q806.477 1544.09 808.282 1540.55 Q810.111 1536.98 810.111 1529.87 Q810.111 1522.75 808.282 1519.2 Q806.477 1515.64 802.843 1515.64 M802.843 1511.93 Q808.653 1511.93 811.708 1516.54 Q814.787 1521.12 814.787 1529.87 Q814.787 1538.6 811.708 1543.21 Q808.653 1547.79 802.843 1547.79 Q797.033 1547.79 793.954 1543.21 Q790.898 1538.6 790.898 1529.87 Q790.898 1521.12 793.954 1516.54 Q797.033 1511.93 802.843 1511.93 Z" fill="#000000" fill-rule="evenodd" fill-opacity="1" /><path clip-path="url(#clip670)" d="M1274.38 1512.56 L1292.73 1512.56 L1292.73 1516.5 L1278.66 1516.5 L1278.66 1524.97 Q1279.68 1524.62 1280.7 1524.46 Q1281.71 1524.27 1282.73 1524.27 Q1288.52 1524.27 1291.9 1527.44 Q1295.28 1530.62 1295.28 1536.03 Q1295.28 1541.61 1291.81 1544.71 Q1288.33 1547.79 1282.01 1547.79 Q1279.84 1547.79 1277.57 1547.42 Q1275.33 1547.05 1272.92 1546.31 L1272.92 1541.61 Q1275 1542.74 1277.22 1543.3 Q1279.45 1543.86 1281.92 1543.86 Q1285.93 1543.86 1288.26 1541.75 Q1290.6 1539.64 1290.6 1536.03 Q1290.6 1532.42 1288.26 1530.31 Q1285.93 1528.21 1281.92 1528.21 Q1280.05 1528.21 1278.17 1528.62 Q1276.32 1529.04 1274.38 1529.92 L1274.38 1512.56 Z" fill="#000000" fill-rule="evenodd" fill-opacity="1" /><path clip-path="url(#clip670)" d="M1314.49 1515.64 Q1310.88 1515.64 1309.05 1519.2 Q1307.25 1522.75 1307.25 1529.87 Q1307.25 1536.98 1309.05 1540.55 Q1310.88 1544.09 1314.49 1544.09 Q1318.13 1544.09 1319.93 1540.55 Q1321.76 1536.98 1321.76 1529.87 Q1321.76 1522.75 1319.93 1519.2 Q1318.13 1515.64 1314.49 1515.64 M1314.49 1511.93 Q1320.3 1511.93 1323.36 1516.54 Q1326.44 1521.12 1326.44 1529.87 Q1326.44 1538.6 1323.36 1543.21 Q1320.3 1547.79 1314.49 1547.79 Q1308.68 1547.79 1305.6 1543.21 Q1302.55 1538.6 1302.55 1529.87 Q1302.55 1521.12 1305.6 1516.54 Q1308.68 1511.93 1314.49 1511.93 Z" fill="#000000" fill-rule="evenodd" fill-opacity="1" /><path clip-path="url(#clip670)" d="M1756.12 1543.18 L1763.76 1543.18 L1763.76 1516.82 L1755.45 1518.49 L1755.45 1514.23 L1763.71 1512.56 L1768.39 1512.56 L1768.39 1543.18 L1776.02 1543.18 L1776.02 1547.12 L1756.12 1547.12 L1756.12 1543.18 Z" fill="#000000" fill-rule="evenodd" fill-opacity="1" /><path clip-path="url(#clip670)" d="M1795.47 1515.64 Q1791.86 1515.64 1790.03 1519.2 Q1788.22 1522.75 1788.22 1529.87 Q1788.22 1536.98 1790.03 1540.55 Q1791.86 1544.09 1795.47 1544.09 Q1799.1 1544.09 1800.91 1540.55 Q1802.74 1536.98 1802.74 1529.87 Q1802.74 1522.75 1800.91 1519.2 Q1799.1 1515.64 1795.47 1515.64 M1795.47 1511.93 Q1801.28 1511.93 1804.34 1516.54 Q1807.41 1521.12 1807.41 1529.87 Q1807.41 1538.6 1804.34 1543.21 Q1801.28 1547.79 1795.47 1547.79 Q1789.66 1547.79 1786.58 1543.21 Q1783.52 1538.6 1783.52 1529.87 Q1783.52 1521.12 1786.58 1516.54 Q1789.66 1511.93 1795.47 1511.93 Z" fill="#000000" fill-rule="evenodd" fill-opacity="1" /><path clip-path="url(#clip670)" d="M1825.63 1515.64 Q1822.02 1515.64 1820.19 1519.2 Q1818.39 1522.75 1818.39 1529.87 Q1818.39 1536.98 1820.19 1540.55 Q1822.02 1544.09 1825.63 1544.09 Q1829.27 1544.09 1831.07 1540.55 Q1832.9 1536.98 1832.9 1529.87 Q1832.9 1522.75 1831.07 1519.2 Q1829.27 1515.64 1825.63 1515.64 M1825.63 1511.93 Q1831.44 1511.93 1834.5 1516.54 Q1837.58 1521.12 1837.58 1529.87 Q1837.58 1538.6 1834.5 1543.21 Q1831.44 1547.79 1825.63 1547.79 Q1819.82 1547.79 1816.74 1543.21 Q1813.69 1538.6 1813.69 1529.87 Q1813.69 1521.12 1816.74 1516.54 Q1819.82 1511.93 1825.63 1511.93 Z" fill="#000000" fill-rule="evenodd" fill-opacity="1" /><path clip-path="url(#clip670)" d="M2252.95 1543.18 L2260.59 1543.18 L2260.59 1516.82 L2252.28 1518.49 L2252.28 1514.23 L2260.54 1512.56 L2265.22 1512.56 L2265.22 1543.18 L2272.86 1543.18 L2272.86 1547.12 L2252.95 1547.12 L2252.95 1543.18 Z" fill="#000000" fill-rule="evenodd" fill-opacity="1" /><path clip-path="url(#clip670)" d="M2282.35 1512.56 L2300.71 1512.56 L2300.71 1516.5 L2286.63 1516.5 L2286.63 1524.97 Q2287.65 1524.62 2288.67 1524.46 Q2289.69 1524.27 2290.71 1524.27 Q2296.49 1524.27 2299.87 1527.44 Q2303.25 1530.62 2303.25 1536.03 Q2303.25 1541.61 2299.78 1544.71 Q2296.31 1547.79 2289.99 1547.79 Q2287.81 1547.79 2285.54 1547.42 Q2283.3 1547.05 2280.89 1546.31 L2280.89 1541.61 Q2282.97 1542.74 2285.2 1543.3 Q2287.42 1543.86 2289.9 1543.86 Q2293.9 1543.86 2296.24 1541.75 Q2298.58 1539.64 2298.58 1536.03 Q2298.58 1532.42 2296.24 1530.31 Q2293.9 1528.21 2289.9 1528.21 Q2288.02 1528.21 2286.15 1528.62 Q2284.29 1529.04 2282.35 1529.92 L2282.35 1512.56 Z" fill="#000000" fill-rule="evenodd" fill-opacity="1" /><path clip-path="url(#clip670)" d="M2322.47 1515.64 Q2318.85 1515.64 2317.03 1519.2 Q2315.22 1522.75 2315.22 1529.87 Q2315.22 1536.98 2317.03 1540.55 Q2318.85 1544.09 2322.47 1544.09 Q2326.1 1544.09 2327.91 1540.55 Q2329.73 1536.98 2329.73 1529.87 Q2329.73 1522.75 2327.91 1519.2 Q2326.1 1515.64 2322.47 1515.64 M2322.47 1511.93 Q2328.28 1511.93 2331.33 1516.54 Q2334.41 1521.12 2334.41 1529.87 Q2334.41 1538.6 2331.33 1543.21 Q2328.28 1547.79 2322.47 1547.79 Q2316.66 1547.79 2313.58 1543.21 Q2310.52 1538.6 2310.52 1529.87 Q2310.52 1521.12 2313.58 1516.54 Q2316.66 1511.93 2322.47 1511.93 Z" fill="#000000" fill-rule="evenodd" fill-opacity="1" /><polyline clip-path="url(#clip672)" style="stroke:#000000; stroke-linecap:butt; stroke-linejoin:round; stroke-width:2; stroke-opacity:0.1; fill:none" points="
  246.598,1445.82 2352.76,1445.82 
  "/>
<polyline clip-path="url(#clip672)" style="stroke:#000000; stroke-linecap:butt; stroke-linejoin:round; stroke-width:2; stroke-opacity:0.1; fill:none" points="
  246.598,1140.48 2352.76,1140.48 
  "/>
<polyline clip-path="url(#clip672)" style="stroke:#000000; stroke-linecap:butt; stroke-linejoin:round; stroke-width:2; stroke-opacity:0.1; fill:none" points="
  246.598,835.151 2352.76,835.151 
  "/>
<polyline clip-path="url(#clip672)" style="stroke:#000000; stroke-linecap:butt; stroke-linejoin:round; stroke-width:2; stroke-opacity:0.1; fill:none" points="
  246.598,529.818 2352.76,529.818 
  "/>
<polyline clip-path="url(#clip672)" style="stroke:#000000; stroke-linecap:butt; stroke-linejoin:round; stroke-width:2; stroke-opacity:0.1; fill:none" points="
  246.598,224.484 2352.76,224.484 
  "/>
<polyline clip-path="url(#clip670)" style="stroke:#000000; stroke-linecap:butt; stroke-linejoin:round; stroke-width:4; stroke-opacity:1; fill:none" points="
  246.598,1486.45 246.598,47.2441 
  "/>
<polyline clip-path="url(#clip670)" style="stroke:#000000; stroke-linecap:butt; stroke-linejoin:round; stroke-width:4; stroke-opacity:1; fill:none" points="
  246.598,1445.82 271.872,1445.82 
  "/>
<polyline clip-path="url(#clip670)" style="stroke:#000000; stroke-linecap:butt; stroke-linejoin:round; stroke-width:4; stroke-opacity:1; fill:none" points="
  246.598,1140.48 271.872,1140.48 
  "/>
<polyline clip-path="url(#clip670)" style="stroke:#000000; stroke-linecap:butt; stroke-linejoin:round; stroke-width:4; stroke-opacity:1; fill:none" points="
  246.598,835.151 271.872,835.151 
  "/>
<polyline clip-path="url(#clip670)" style="stroke:#000000; stroke-linecap:butt; stroke-linejoin:round; stroke-width:4; stroke-opacity:1; fill:none" points="
  246.598,529.818 271.872,529.818 
  "/>
<polyline clip-path="url(#clip670)" style="stroke:#000000; stroke-linecap:butt; stroke-linejoin:round; stroke-width:4; stroke-opacity:1; fill:none" points="
  246.598,224.484 271.872,224.484 
  "/>
<path clip-path="url(#clip670)" d="M62.9365 1431.62 Q59.3254 1431.62 57.4967 1435.18 Q55.6912 1438.72 55.6912 1445.85 Q55.6912 1452.96 57.4967 1456.52 Q59.3254 1460.07 62.9365 1460.07 Q66.5707 1460.07 68.3763 1456.52 Q70.205 1452.96 70.205 1445.85 Q70.205 1438.72 68.3763 1435.18 Q66.5707 1431.62 62.9365 1431.62 M62.9365 1427.91 Q68.7467 1427.91 71.8022 1432.52 Q74.8809 1437.1 74.8809 1445.85 Q74.8809 1454.58 71.8022 1459.19 Q68.7467 1463.77 62.9365 1463.77 Q57.1264 1463.77 54.0477 1459.19 Q50.9921 1454.58 50.9921 1445.85 Q50.9921 1437.1 54.0477 1432.52 Q57.1264 1427.91 62.9365 1427.91 Z" fill="#000000" fill-rule="evenodd" fill-opacity="1" /><path clip-path="url(#clip670)" d="M83.0984 1457.22 L87.9827 1457.22 L87.9827 1463.1 L83.0984 1463.1 L83.0984 1457.22 Z" fill="#000000" fill-rule="evenodd" fill-opacity="1" /><path clip-path="url(#clip670)" d="M108.168 1431.62 Q104.557 1431.62 102.728 1435.18 Q100.922 1438.72 100.922 1445.85 Q100.922 1452.96 102.728 1456.52 Q104.557 1460.07 108.168 1460.07 Q111.802 1460.07 113.608 1456.52 Q115.436 1452.96 115.436 1445.85 Q115.436 1438.72 113.608 1435.18 Q111.802 1431.62 108.168 1431.62 M108.168 1427.91 Q113.978 1427.91 117.033 1432.52 Q120.112 1437.1 120.112 1445.85 Q120.112 1454.58 117.033 1459.19 Q113.978 1463.77 108.168 1463.77 Q102.358 1463.77 99.2789 1459.19 Q96.2234 1454.58 96.2234 1445.85 Q96.2234 1437.1 99.2789 1432.52 Q102.358 1427.91 108.168 1427.91 Z" fill="#000000" fill-rule="evenodd" fill-opacity="1" /><path clip-path="url(#clip670)" d="M138.33 1431.62 Q134.719 1431.62 132.89 1435.18 Q131.084 1438.72 131.084 1445.85 Q131.084 1452.96 132.89 1456.52 Q134.719 1460.07 138.33 1460.07 Q141.964 1460.07 143.769 1456.52 Q145.598 1452.96 145.598 1445.85 Q145.598 1438.72 143.769 1435.18 Q141.964 1431.62 138.33 1431.62 M138.33 1427.91 Q144.14 1427.91 147.195 1432.52 Q150.274 1437.1 150.274 1445.85 Q150.274 1454.58 147.195 1459.19 Q144.14 1463.77 138.33 1463.77 Q132.519 1463.77 129.441 1459.19 Q126.385 1454.58 126.385 1445.85 Q126.385 1437.1 129.441 1432.52 Q132.519 1427.91 138.33 1427.91 Z" fill="#000000" fill-rule="evenodd" fill-opacity="1" /><path clip-path="url(#clip670)" d="M168.491 1431.62 Q164.88 1431.62 163.052 1435.18 Q161.246 1438.72 161.246 1445.85 Q161.246 1452.96 163.052 1456.52 Q164.88 1460.07 168.491 1460.07 Q172.126 1460.07 173.931 1456.52 Q175.76 1452.96 175.76 1445.85 Q175.76 1438.72 173.931 1435.18 Q172.126 1431.62 168.491 1431.62 M168.491 1427.91 Q174.302 1427.91 177.357 1432.52 Q180.436 1437.1 180.436 1445.85 Q180.436 1454.58 177.357 1459.19 Q174.302 1463.77 168.491 1463.77 Q162.681 1463.77 159.603 1459.19 Q156.547 1454.58 156.547 1445.85 Q156.547 1437.1 159.603 1432.52 Q162.681 1427.91 168.491 1427.91 Z" fill="#000000" fill-rule="evenodd" fill-opacity="1" /><path clip-path="url(#clip670)" d="M198.653 1431.62 Q195.042 1431.62 193.214 1435.18 Q191.408 1438.72 191.408 1445.85 Q191.408 1452.96 193.214 1456.52 Q195.042 1460.07 198.653 1460.07 Q202.288 1460.07 204.093 1456.52 Q205.922 1452.96 205.922 1445.85 Q205.922 1438.72 204.093 1435.18 Q202.288 1431.62 198.653 1431.62 M198.653 1427.91 Q204.464 1427.91 207.519 1432.52 Q210.598 1437.1 210.598 1445.85 Q210.598 1454.58 207.519 1459.19 Q204.464 1463.77 198.653 1463.77 Q192.843 1463.77 189.765 1459.19 Q186.709 1454.58 186.709 1445.85 Q186.709 1437.1 189.765 1432.52 Q192.843 1427.91 198.653 1427.91 Z" fill="#000000" fill-rule="evenodd" fill-opacity="1" /><path clip-path="url(#clip670)" d="M63.9319 1126.28 Q60.3208 1126.28 58.4921 1129.85 Q56.6865 1133.39 56.6865 1140.52 Q56.6865 1147.63 58.4921 1151.19 Q60.3208 1154.73 63.9319 1154.73 Q67.5661 1154.73 69.3717 1151.19 Q71.2004 1147.63 71.2004 1140.52 Q71.2004 1133.39 69.3717 1129.85 Q67.5661 1126.28 63.9319 1126.28 M63.9319 1122.58 Q69.742 1122.58 72.7976 1127.19 Q75.8763 1131.77 75.8763 1140.52 Q75.8763 1149.25 72.7976 1153.85 Q69.742 1158.44 63.9319 1158.44 Q58.1217 1158.44 55.043 1153.85 Q51.9875 1149.25 51.9875 1140.52 Q51.9875 1131.77 55.043 1127.19 Q58.1217 1122.58 63.9319 1122.58 Z" fill="#000000" fill-rule="evenodd" fill-opacity="1" /><path clip-path="url(#clip670)" d="M84.0938 1151.89 L88.978 1151.89 L88.978 1157.76 L84.0938 1157.76 L84.0938 1151.89 Z" fill="#000000" fill-rule="evenodd" fill-opacity="1" /><path clip-path="url(#clip670)" d="M109.163 1126.28 Q105.552 1126.28 103.723 1129.85 Q101.918 1133.39 101.918 1140.52 Q101.918 1147.63 103.723 1151.19 Q105.552 1154.73 109.163 1154.73 Q112.797 1154.73 114.603 1151.19 Q116.432 1147.63 116.432 1140.52 Q116.432 1133.39 114.603 1129.85 Q112.797 1126.28 109.163 1126.28 M109.163 1122.58 Q114.973 1122.58 118.029 1127.19 Q121.107 1131.77 121.107 1140.52 Q121.107 1149.25 118.029 1153.85 Q114.973 1158.44 109.163 1158.44 Q103.353 1158.44 100.274 1153.85 Q97.2187 1149.25 97.2187 1140.52 Q97.2187 1131.77 100.274 1127.19 Q103.353 1122.58 109.163 1122.58 Z" fill="#000000" fill-rule="evenodd" fill-opacity="1" /><path clip-path="url(#clip670)" d="M139.325 1126.28 Q135.714 1126.28 133.885 1129.85 Q132.08 1133.39 132.08 1140.52 Q132.08 1147.63 133.885 1151.19 Q135.714 1154.73 139.325 1154.73 Q142.959 1154.73 144.765 1151.19 Q146.593 1147.63 146.593 1140.52 Q146.593 1133.39 144.765 1129.85 Q142.959 1126.28 139.325 1126.28 M139.325 1122.58 Q145.135 1122.58 148.191 1127.19 Q151.269 1131.77 151.269 1140.52 Q151.269 1149.25 148.191 1153.85 Q145.135 1158.44 139.325 1158.44 Q133.515 1158.44 130.436 1153.85 Q127.381 1149.25 127.381 1140.52 Q127.381 1131.77 130.436 1127.19 Q133.515 1122.58 139.325 1122.58 Z" fill="#000000" fill-rule="evenodd" fill-opacity="1" /><path clip-path="url(#clip670)" d="M163.515 1153.83 L179.834 1153.83 L179.834 1157.76 L157.89 1157.76 L157.89 1153.83 Q160.552 1151.07 165.135 1146.45 Q169.741 1141.79 170.922 1140.45 Q173.167 1137.93 174.047 1136.19 Q174.95 1134.43 174.95 1132.74 Q174.95 1129.99 173.005 1128.25 Q171.084 1126.51 167.982 1126.51 Q165.783 1126.51 163.329 1127.28 Q160.899 1128.04 158.121 1129.59 L158.121 1124.87 Q160.945 1123.74 163.399 1123.16 Q165.853 1122.58 167.89 1122.58 Q173.26 1122.58 176.454 1125.26 Q179.649 1127.95 179.649 1132.44 Q179.649 1134.57 178.839 1136.49 Q178.052 1138.39 175.945 1140.98 Q175.366 1141.65 172.265 1144.87 Q169.163 1148.07 163.515 1153.83 Z" fill="#000000" fill-rule="evenodd" fill-opacity="1" /><path clip-path="url(#clip670)" d="M189.695 1123.2 L208.051 1123.2 L208.051 1127.14 L193.977 1127.14 L193.977 1135.61 Q194.996 1135.26 196.014 1135.1 Q197.033 1134.92 198.052 1134.92 Q203.839 1134.92 207.218 1138.09 Q210.598 1141.26 210.598 1146.68 Q210.598 1152.26 207.126 1155.36 Q203.653 1158.44 197.334 1158.44 Q195.158 1158.44 192.89 1158.07 Q190.644 1157.7 188.237 1156.95 L188.237 1152.26 Q190.32 1153.39 192.542 1153.95 Q194.765 1154.5 197.241 1154.5 Q201.246 1154.5 203.584 1152.39 Q205.922 1150.29 205.922 1146.68 Q205.922 1143.07 203.584 1140.96 Q201.246 1138.85 197.241 1138.85 Q195.366 1138.85 193.491 1139.27 Q191.64 1139.69 189.695 1140.57 L189.695 1123.2 Z" fill="#000000" fill-rule="evenodd" fill-opacity="1" /><path clip-path="url(#clip670)" d="M62.9365 820.95 Q59.3254 820.95 57.4967 824.515 Q55.6912 828.056 55.6912 835.186 Q55.6912 842.292 57.4967 845.857 Q59.3254 849.399 62.9365 849.399 Q66.5707 849.399 68.3763 845.857 Q70.205 842.292 70.205 835.186 Q70.205 828.056 68.3763 824.515 Q66.5707 820.95 62.9365 820.95 M62.9365 817.246 Q68.7467 817.246 71.8022 821.853 Q74.8809 826.436 74.8809 835.186 Q74.8809 843.913 71.8022 848.519 Q68.7467 853.103 62.9365 853.103 Q57.1264 853.103 54.0477 848.519 Q50.9921 843.913 50.9921 835.186 Q50.9921 826.436 54.0477 821.853 Q57.1264 817.246 62.9365 817.246 Z" fill="#000000" fill-rule="evenodd" fill-opacity="1" /><path clip-path="url(#clip670)" d="M83.0984 846.552 L87.9827 846.552 L87.9827 852.431 L83.0984 852.431 L83.0984 846.552 Z" fill="#000000" fill-rule="evenodd" fill-opacity="1" /><path clip-path="url(#clip670)" d="M108.168 820.95 Q104.557 820.95 102.728 824.515 Q100.922 828.056 100.922 835.186 Q100.922 842.292 102.728 845.857 Q104.557 849.399 108.168 849.399 Q111.802 849.399 113.608 845.857 Q115.436 842.292 115.436 835.186 Q115.436 828.056 113.608 824.515 Q111.802 820.95 108.168 820.95 M108.168 817.246 Q113.978 817.246 117.033 821.853 Q120.112 826.436 120.112 835.186 Q120.112 843.913 117.033 848.519 Q113.978 853.103 108.168 853.103 Q102.358 853.103 99.2789 848.519 Q96.2234 843.913 96.2234 835.186 Q96.2234 826.436 99.2789 821.853 Q102.358 817.246 108.168 817.246 Z" fill="#000000" fill-rule="evenodd" fill-opacity="1" /><path clip-path="url(#clip670)" d="M138.33 820.95 Q134.719 820.95 132.89 824.515 Q131.084 828.056 131.084 835.186 Q131.084 842.292 132.89 845.857 Q134.719 849.399 138.33 849.399 Q141.964 849.399 143.769 845.857 Q145.598 842.292 145.598 835.186 Q145.598 828.056 143.769 824.515 Q141.964 820.95 138.33 820.95 M138.33 817.246 Q144.14 817.246 147.195 821.853 Q150.274 826.436 150.274 835.186 Q150.274 843.913 147.195 848.519 Q144.14 853.103 138.33 853.103 Q132.519 853.103 129.441 848.519 Q126.385 843.913 126.385 835.186 Q126.385 826.436 129.441 821.853 Q132.519 817.246 138.33 817.246 Z" fill="#000000" fill-rule="evenodd" fill-opacity="1" /><path clip-path="url(#clip670)" d="M158.538 817.871 L176.894 817.871 L176.894 821.806 L162.82 821.806 L162.82 830.279 Q163.839 829.931 164.857 829.769 Q165.876 829.584 166.894 829.584 Q172.681 829.584 176.061 832.755 Q179.441 835.927 179.441 841.343 Q179.441 846.922 175.968 850.024 Q172.496 853.103 166.177 853.103 Q164.001 853.103 161.732 852.732 Q159.487 852.362 157.08 851.621 L157.08 846.922 Q159.163 848.056 161.385 848.612 Q163.607 849.167 166.084 849.167 Q170.089 849.167 172.427 847.061 Q174.765 844.954 174.765 841.343 Q174.765 837.732 172.427 835.626 Q170.089 833.519 166.084 833.519 Q164.209 833.519 162.334 833.936 Q160.482 834.353 158.538 835.232 L158.538 817.871 Z" fill="#000000" fill-rule="evenodd" fill-opacity="1" /><path clip-path="url(#clip670)" d="M198.653 820.95 Q195.042 820.95 193.214 824.515 Q191.408 828.056 191.408 835.186 Q191.408 842.292 193.214 845.857 Q195.042 849.399 198.653 849.399 Q202.288 849.399 204.093 845.857 Q205.922 842.292 205.922 835.186 Q205.922 828.056 204.093 824.515 Q202.288 820.95 198.653 820.95 M198.653 817.246 Q204.464 817.246 207.519 821.853 Q210.598 826.436 210.598 835.186 Q210.598 843.913 207.519 848.519 Q204.464 853.103 198.653 853.103 Q192.843 853.103 189.765 848.519 Q186.709 843.913 186.709 835.186 Q186.709 826.436 189.765 821.853 Q192.843 817.246 198.653 817.246 Z" fill="#000000" fill-rule="evenodd" fill-opacity="1" /><path clip-path="url(#clip670)" d="M63.9319 515.616 Q60.3208 515.616 58.4921 519.181 Q56.6865 522.723 56.6865 529.852 Q56.6865 536.959 58.4921 540.524 Q60.3208 544.065 63.9319 544.065 Q67.5661 544.065 69.3717 540.524 Q71.2004 536.959 71.2004 529.852 Q71.2004 522.723 69.3717 519.181 Q67.5661 515.616 63.9319 515.616 M63.9319 511.913 Q69.742 511.913 72.7976 516.519 Q75.8763 521.103 75.8763 529.852 Q75.8763 538.579 72.7976 543.186 Q69.742 547.769 63.9319 547.769 Q58.1217 547.769 55.043 543.186 Q51.9875 538.579 51.9875 529.852 Q51.9875 521.103 55.043 516.519 Q58.1217 511.913 63.9319 511.913 Z" fill="#000000" fill-rule="evenodd" fill-opacity="1" /><path clip-path="url(#clip670)" d="M84.0938 541.218 L88.978 541.218 L88.978 547.098 L84.0938 547.098 L84.0938 541.218 Z" fill="#000000" fill-rule="evenodd" fill-opacity="1" /><path clip-path="url(#clip670)" d="M109.163 515.616 Q105.552 515.616 103.723 519.181 Q101.918 522.723 101.918 529.852 Q101.918 536.959 103.723 540.524 Q105.552 544.065 109.163 544.065 Q112.797 544.065 114.603 540.524 Q116.432 536.959 116.432 529.852 Q116.432 522.723 114.603 519.181 Q112.797 515.616 109.163 515.616 M109.163 511.913 Q114.973 511.913 118.029 516.519 Q121.107 521.103 121.107 529.852 Q121.107 538.579 118.029 543.186 Q114.973 547.769 109.163 547.769 Q103.353 547.769 100.274 543.186 Q97.2187 538.579 97.2187 529.852 Q97.2187 521.103 100.274 516.519 Q103.353 511.913 109.163 511.913 Z" fill="#000000" fill-rule="evenodd" fill-opacity="1" /><path clip-path="url(#clip670)" d="M139.325 515.616 Q135.714 515.616 133.885 519.181 Q132.08 522.723 132.08 529.852 Q132.08 536.959 133.885 540.524 Q135.714 544.065 139.325 544.065 Q142.959 544.065 144.765 540.524 Q146.593 536.959 146.593 529.852 Q146.593 522.723 144.765 519.181 Q142.959 515.616 139.325 515.616 M139.325 511.913 Q145.135 511.913 148.191 516.519 Q151.269 521.103 151.269 529.852 Q151.269 538.579 148.191 543.186 Q145.135 547.769 139.325 547.769 Q133.515 547.769 130.436 543.186 Q127.381 538.579 127.381 529.852 Q127.381 521.103 130.436 516.519 Q133.515 511.913 139.325 511.913 Z" fill="#000000" fill-rule="evenodd" fill-opacity="1" /><path clip-path="url(#clip670)" d="M158.306 512.538 L180.528 512.538 L180.528 514.528 L167.982 547.098 L163.098 547.098 L174.903 516.473 L158.306 516.473 L158.306 512.538 Z" fill="#000000" fill-rule="evenodd" fill-opacity="1" /><path clip-path="url(#clip670)" d="M189.695 512.538 L208.051 512.538 L208.051 516.473 L193.977 516.473 L193.977 524.945 Q194.996 524.598 196.014 524.436 Q197.033 524.251 198.052 524.251 Q203.839 524.251 207.218 527.422 Q210.598 530.593 210.598 536.01 Q210.598 541.589 207.126 544.69 Q203.653 547.769 197.334 547.769 Q195.158 547.769 192.89 547.399 Q190.644 547.028 188.237 546.288 L188.237 541.589 Q190.32 542.723 192.542 543.278 Q194.765 543.834 197.241 543.834 Q201.246 543.834 203.584 541.727 Q205.922 539.621 205.922 536.01 Q205.922 532.399 203.584 530.292 Q201.246 528.186 197.241 528.186 Q195.366 528.186 193.491 528.602 Q191.64 529.019 189.695 529.899 L189.695 512.538 Z" fill="#000000" fill-rule="evenodd" fill-opacity="1" /><path clip-path="url(#clip670)" d="M62.9365 210.283 Q59.3254 210.283 57.4967 213.848 Q55.6912 217.389 55.6912 224.519 Q55.6912 231.625 57.4967 235.19 Q59.3254 238.732 62.9365 238.732 Q66.5707 238.732 68.3763 235.19 Q70.205 231.625 70.205 224.519 Q70.205 217.389 68.3763 213.848 Q66.5707 210.283 62.9365 210.283 M62.9365 206.579 Q68.7467 206.579 71.8022 211.186 Q74.8809 215.769 74.8809 224.519 Q74.8809 233.246 71.8022 237.852 Q68.7467 242.436 62.9365 242.436 Q57.1264 242.436 54.0477 237.852 Q50.9921 233.246 50.9921 224.519 Q50.9921 215.769 54.0477 211.186 Q57.1264 206.579 62.9365 206.579 Z" fill="#000000" fill-rule="evenodd" fill-opacity="1" /><path clip-path="url(#clip670)" d="M83.0984 235.885 L87.9827 235.885 L87.9827 241.764 L83.0984 241.764 L83.0984 235.885 Z" fill="#000000" fill-rule="evenodd" fill-opacity="1" /><path clip-path="url(#clip670)" d="M108.168 210.283 Q104.557 210.283 102.728 213.848 Q100.922 217.389 100.922 224.519 Q100.922 231.625 102.728 235.19 Q104.557 238.732 108.168 238.732 Q111.802 238.732 113.608 235.19 Q115.436 231.625 115.436 224.519 Q115.436 217.389 113.608 213.848 Q111.802 210.283 108.168 210.283 M108.168 206.579 Q113.978 206.579 117.033 211.186 Q120.112 215.769 120.112 224.519 Q120.112 233.246 117.033 237.852 Q113.978 242.436 108.168 242.436 Q102.358 242.436 99.2789 237.852 Q96.2234 233.246 96.2234 224.519 Q96.2234 215.769 99.2789 211.186 Q102.358 206.579 108.168 206.579 Z" fill="#000000" fill-rule="evenodd" fill-opacity="1" /><path clip-path="url(#clip670)" d="M129.14 237.829 L136.779 237.829 L136.779 211.464 L128.469 213.13 L128.469 208.871 L136.732 207.204 L141.408 207.204 L141.408 237.829 L149.047 237.829 L149.047 241.764 L129.14 241.764 L129.14 237.829 Z" fill="#000000" fill-rule="evenodd" fill-opacity="1" /><path clip-path="url(#clip670)" d="M168.491 210.283 Q164.88 210.283 163.052 213.848 Q161.246 217.389 161.246 224.519 Q161.246 231.625 163.052 235.19 Q164.88 238.732 168.491 238.732 Q172.126 238.732 173.931 235.19 Q175.76 231.625 175.76 224.519 Q175.76 217.389 173.931 213.848 Q172.126 210.283 168.491 210.283 M168.491 206.579 Q174.302 206.579 177.357 211.186 Q180.436 215.769 180.436 224.519 Q180.436 233.246 177.357 237.852 Q174.302 242.436 168.491 242.436 Q162.681 242.436 159.603 237.852 Q156.547 233.246 156.547 224.519 Q156.547 215.769 159.603 211.186 Q162.681 206.579 168.491 206.579 Z" fill="#000000" fill-rule="evenodd" fill-opacity="1" /><path clip-path="url(#clip670)" d="M198.653 210.283 Q195.042 210.283 193.214 213.848 Q191.408 217.389 191.408 224.519 Q191.408 231.625 193.214 235.19 Q195.042 238.732 198.653 238.732 Q202.288 238.732 204.093 235.19 Q205.922 231.625 205.922 224.519 Q205.922 217.389 204.093 213.848 Q202.288 210.283 198.653 210.283 M198.653 206.579 Q204.464 206.579 207.519 211.186 Q210.598 215.769 210.598 224.519 Q210.598 233.246 207.519 237.852 Q204.464 242.436 198.653 242.436 Q192.843 242.436 189.765 237.852 Q186.709 233.246 186.709 224.519 Q186.709 215.769 189.765 211.186 Q192.843 206.579 198.653 206.579 Z" fill="#000000" fill-rule="evenodd" fill-opacity="1" /><polyline clip-path="url(#clip672)" style="stroke:#009af9; stroke-linecap:butt; stroke-linejoin:round; stroke-width:4; stroke-opacity:1; fill:none" points="
  306.206,1445.71 316.191,1445.7 326.175,1445.67 336.16,1445.64 346.145,1445.58 356.129,1445.51 366.114,1445.41 376.098,1445.27 386.083,1445.1 396.068,1444.88 
  406.052,1444.59 416.037,1444.21 426.022,1443.74 436.006,1443.14 445.991,1442.39 455.975,1441.45 465.96,1440.28 475.945,1438.83 485.929,1437.05 495.914,1434.88 
  505.899,1432.24 515.883,1429.05 525.868,1425.22 535.853,1420.65 545.837,1415.22 555.822,1408.82 565.806,1401.32 575.791,1392.56 585.776,1382.42 595.76,1370.73 
  605.745,1357.34 615.73,1342.11 625.714,1324.87 635.699,1305.48 645.683,1283.81 655.668,1259.75 665.653,1233.19 675.637,1204.06 685.622,1172.31 695.607,1137.93 
  705.591,1100.94 715.576,1061.41 725.561,1019.45 735.545,975.201 745.53,928.869 755.514,880.694 765.499,830.964 775.484,780.005 785.468,728.181 795.453,675.888 
  805.438,623.547 815.422,571.595 825.407,520.479 835.391,470.646 845.376,422.535 855.361,376.565 865.345,333.13 875.33,292.588 885.315,255.253 895.299,221.39 
  905.284,191.209 915.269,164.861 925.253,142.437 935.238,123.968 945.222,109.423 955.207,98.7141 965.192,91.7019 975.176,88.1987 985.161,87.9763 995.146,90.7732 
  1005.13,96.3026 1015.11,104.261 1025.1,114.335 1035.08,126.211 1045.07,139.582 1055.05,154.154 1065.04,169.65 1075.02,185.817 1085.01,202.428 1094.99,219.285 
  1104.98,236.221 1114.96,253.095 1124.95,269.798 1134.93,286.247 1144.92,302.383 1154.9,318.169 1164.88,333.586 1174.87,348.628 1184.85,363.301 1194.84,377.618 
  1204.82,391.595 1214.81,405.248 1224.79,418.59 1234.78,431.631 1244.76,444.371 1254.75,456.802 1264.73,468.905 1274.72,480.651 1284.7,491.997 1294.68,502.889 
  1304.67,513.259 1314.65,523.03 1324.64,532.111 1334.62,540.405 1344.61,547.804 1354.59,554.196 1364.58,559.464 1374.56,563.492 1384.55,566.165 1394.53,567.376 
  1404.52,567.025 1414.5,565.026 1424.48,561.314 1434.47,555.841 1444.45,548.589 1454.44,539.565 1464.42,528.811 1474.41,516.405 1484.39,502.461 1494.38,487.131 
  1504.36,470.608 1514.35,453.123 1524.33,434.942 1534.32,416.367 1544.3,397.73 1554.28,379.386 1564.27,361.712 1574.25,345.096 1584.24,329.932 1594.22,316.611 
  1604.21,305.512 1614.19,296.996 1624.18,291.395 1634.16,289.006 1644.15,290.082 1654.13,294.827 1664.12,303.39 1674.1,315.863 1684.09,332.273 1694.07,352.587 
  1704.05,376.709 1714.04,404.48 1724.02,435.688 1734.01,470.064 1743.99,507.295 1753.98,547.028 1763.96,588.879 1773.95,632.439 1783.93,677.286 1793.92,722.992 
  1803.9,769.133 1813.89,815.295 1823.87,861.084 1833.85,906.13 1843.84,950.097 1853.82,992.683 1863.81,1033.62 1873.79,1072.7 1883.78,1109.73 1893.76,1144.59 
  1903.75,1177.17 1913.73,1207.42 1923.72,1235.33 1933.7,1260.9 1943.69,1284.18 1953.67,1305.25 1963.65,1324.2 1973.64,1341.12 1983.62,1356.15 1993.61,1369.42 
  2003.59,1381.06 2013.58,1391.2 2023.56,1400 2033.55,1407.57 2043.53,1414.06 2053.52,1419.59 2063.5,1424.26 2073.49,1428.2 2083.47,1431.49 2093.46,1434.23 
  2103.44,1436.49 2113.42,1438.35 2123.41,1439.87 2133.39,1441.11 2143.38,1442.11 2153.36,1442.91 2163.35,1443.55 2173.33,1444.06 2183.32,1444.46 2193.3,1444.77 
  2203.29,1445.02 2213.27,1445.21 2223.26,1445.36 2233.24,1445.47 2243.22,1445.55 2253.21,1445.62 2263.19,1445.66 2273.18,1445.69 2283.16,1445.71 2293.15,1445.72 
  
  "/>
</svg>
