<?xml version="1.0" encoding="utf-8"?>
<svg xmlns="http://www.w3.org/2000/svg" xmlns:xlink="http://www.w3.org/1999/xlink" width="600" height="400" viewBox="0 0 2400 1600">
<defs>
  <clipPath id="clip700">
    <rect x="0" y="0" width="2400" height="1600"/>
  </clipPath>
</defs>
<path clip-path="url(#clip700)" d="
M0 1600 L2400 1600 L2400 0 L0 0  Z
  " fill="#ffffff" fill-rule="evenodd" fill-opacity="1"/>
<defs>
  <clipPath id="clip701">
    <rect x="480" y="0" width="1681" height="1600"/>
  </clipPath>
</defs>
<path clip-path="url(#clip700)" d="
M141.853 1486.45 L2352.76 1486.45 L2352.76 47.2441 L141.853 47.2441  Z
  " fill="#ffffff" fill-rule="evenodd" fill-opacity="1"/>
<defs>
  <clipPath id="clip702">
    <rect x="141" y="47" width="2212" height="1440"/>
  </clipPath>
</defs>
<polyline clip-path="url(#clip702)" style="stroke:#000000; stroke-linecap:butt; stroke-linejoin:round; stroke-width:2; stroke-opacity:0.1; fill:none" points="
  544.556,1486.45 544.556,47.2441 
  "/>
<polyline clip-path="url(#clip702)" style="stroke:#000000; stroke-linecap:butt; stroke-linejoin:round; stroke-width:2; stroke-opacity:0.1; fill:none" points="
  1247.3,1486.45 1247.3,47.2441 
  "/>
<polyline clip-path="url(#clip702)" style="stroke:#000000; stroke-linecap:butt; stroke-linejoin:round; stroke-width:2; stroke-opacity:0.1; fill:none" points="
  1950.05,1486.45 1950.05,47.2441 
  "/>
<polyline clip-path="url(#clip700)" style="stroke:#000000; stroke-linecap:butt; stroke-linejoin:round; stroke-width:4; stroke-opacity:1; fill:none" points="
  141.853,1486.45 2352.76,1486.45 
  "/>
<polyline clip-path="url(#clip700)" style="stroke:#000000; stroke-linecap:butt; stroke-linejoin:round; stroke-width:4; stroke-opacity:1; fill:none" points="
  544.556,1486.45 544.556,1469.18 
  "/>
<polyline clip-path="url(#clip700)" style="stroke:#000000; stroke-linecap:butt; stroke-linejoin:round; stroke-width:4; stroke-opacity:1; fill:none" points="
  1247.3,1486.45 1247.3,1469.18 
  "/>
<polyline clip-path="url(#clip700)" style="stroke:#000000; stroke-linecap:butt; stroke-linejoin:round; stroke-width:4; stroke-opacity:1; fill:none" points="
  1950.05,1486.45 1950.05,1469.18 
  "/>
<path clip-path="url(#clip700)" d="M503.422 1543.23 L503.422 1556.98 L499.14 1556.98 L499.14 1521.19 L503.422 1521.19 L503.422 1525.13 Q504.764 1522.81 506.802 1521.7 Q508.862 1520.57 511.709 1520.57 Q516.431 1520.57 519.371 1524.32 Q522.334 1528.07 522.334 1534.18 Q522.334 1540.29 519.371 1544.04 Q516.431 1547.79 511.709 1547.79 Q508.862 1547.79 506.802 1546.68 Q504.764 1545.55 503.422 1543.23 M517.913 1534.18 Q517.913 1529.48 515.968 1526.82 Q514.047 1524.13 510.667 1524.13 Q507.288 1524.13 505.343 1526.82 Q503.422 1529.48 503.422 1534.18 Q503.422 1538.88 505.343 1541.56 Q507.288 1544.23 510.667 1544.23 Q514.047 1544.23 515.968 1541.56 Q517.913 1538.88 517.913 1534.18 Z" fill="#000000" fill-rule="evenodd" fill-opacity="1" /><path clip-path="url(#clip700)" d="M544.417 1525.18 Q543.699 1524.76 542.843 1524.57 Q542.01 1524.37 540.991 1524.37 Q537.38 1524.37 535.436 1526.73 Q533.514 1529.06 533.514 1533.46 L533.514 1547.12 L529.232 1547.12 L529.232 1521.19 L533.514 1521.19 L533.514 1525.22 Q534.857 1522.86 537.01 1521.73 Q539.162 1520.57 542.241 1520.57 Q542.681 1520.57 543.213 1520.64 Q543.746 1520.68 544.394 1520.8 L544.417 1525.18 Z" fill="#000000" fill-rule="evenodd" fill-opacity="1" /><path clip-path="url(#clip700)" d="M557.889 1524.18 Q554.463 1524.18 552.473 1526.87 Q550.482 1529.53 550.482 1534.18 Q550.482 1538.83 552.449 1541.52 Q554.44 1544.18 557.889 1544.18 Q561.292 1544.18 563.283 1541.49 Q565.273 1538.81 565.273 1534.18 Q565.273 1529.57 563.283 1526.89 Q561.292 1524.18 557.889 1524.18 M557.889 1520.57 Q563.445 1520.57 566.616 1524.18 Q569.787 1527.79 569.787 1534.18 Q569.787 1540.55 566.616 1544.18 Q563.445 1547.79 557.889 1547.79 Q552.311 1547.79 549.139 1544.18 Q545.991 1540.55 545.991 1534.18 Q545.991 1527.79 549.139 1524.18 Q552.311 1520.57 557.889 1520.57 Z" fill="#000000" fill-rule="evenodd" fill-opacity="1" /><path clip-path="url(#clip700)" d="M589.972 1511.1 L589.972 1514.64 L585.898 1514.64 Q583.607 1514.64 582.704 1515.57 Q581.824 1516.5 581.824 1518.9 L581.824 1521.19 L588.838 1521.19 L588.838 1524.5 L581.824 1524.5 L581.824 1547.12 L577.542 1547.12 L577.542 1524.5 L573.468 1524.5 L573.468 1521.19 L577.542 1521.19 L577.542 1519.39 Q577.542 1515.06 579.556 1513.09 Q581.57 1511.1 585.945 1511.1 L589.972 1511.1 Z" fill="#000000" fill-rule="evenodd" fill-opacity="1" /><path clip-path="url(#clip700)" d="M1217.35 1521.19 L1221.61 1521.19 L1226.93 1541.43 L1232.24 1521.19 L1237.26 1521.19 L1242.58 1541.43 L1247.88 1521.19 L1252.14 1521.19 L1245.36 1547.12 L1240.34 1547.12 L1234.76 1525.87 L1229.16 1547.12 L1224.13 1547.12 L1217.35 1521.19 Z" fill="#000000" fill-rule="evenodd" fill-opacity="1" /><path clip-path="url(#clip700)" d="M1277.26 1522.19 L1277.26 1526.17 Q1275.45 1525.18 1273.62 1524.69 Q1271.82 1524.18 1269.97 1524.18 Q1265.82 1524.18 1263.53 1526.82 Q1261.24 1529.43 1261.24 1534.18 Q1261.24 1538.93 1263.53 1541.56 Q1265.82 1544.18 1269.97 1544.18 Q1271.82 1544.18 1273.62 1543.69 Q1275.45 1543.18 1277.26 1542.19 L1277.26 1546.12 Q1275.48 1546.96 1273.55 1547.37 Q1271.66 1547.79 1269.5 1547.79 Q1263.65 1547.79 1260.2 1544.11 Q1256.75 1540.43 1256.75 1534.18 Q1256.75 1527.84 1260.22 1524.2 Q1263.72 1520.57 1269.78 1520.57 Q1271.75 1520.57 1273.62 1520.99 Q1275.5 1521.38 1277.26 1522.19 Z" fill="#000000" fill-rule="evenodd" fill-opacity="1" /><path clip-path="url(#clip700)" d="M1944.37 1534.18 Q1944.37 1529.48 1942.43 1526.82 Q1940.5 1524.13 1937.12 1524.13 Q1933.75 1524.13 1931.8 1526.82 Q1929.88 1529.48 1929.88 1534.18 Q1929.88 1538.88 1931.8 1541.56 Q1933.75 1544.23 1937.12 1544.23 Q1940.5 1544.23 1942.43 1541.56 Q1944.37 1538.88 1944.37 1534.18 M1929.88 1525.13 Q1931.22 1522.81 1933.26 1521.7 Q1935.32 1520.57 1938.17 1520.57 Q1942.89 1520.57 1945.83 1524.32 Q1948.79 1528.07 1948.79 1534.18 Q1948.79 1540.29 1945.83 1544.04 Q1942.89 1547.79 1938.17 1547.79 Q1935.32 1547.79 1933.26 1546.68 Q1931.22 1545.55 1929.88 1543.23 L1929.88 1547.12 L1925.6 1547.12 L1925.6 1511.1 L1929.88 1511.1 L1929.88 1525.13 Z" fill="#000000" fill-rule="evenodd" fill-opacity="1" /><path clip-path="url(#clip700)" d="M1974.51 1522.19 L1974.51 1526.17 Q1972.7 1525.18 1970.87 1524.69 Q1969.07 1524.18 1967.22 1524.18 Q1963.07 1524.18 1960.78 1526.82 Q1958.49 1529.43 1958.49 1534.18 Q1958.49 1538.93 1960.78 1541.56 Q1963.07 1544.18 1967.22 1544.18 Q1969.07 1544.18 1970.87 1543.69 Q1972.7 1543.18 1974.51 1542.19 L1974.51 1546.12 Q1972.73 1546.96 1970.81 1547.37 Q1968.91 1547.79 1966.75 1547.79 Q1960.9 1547.79 1957.45 1544.11 Q1954 1540.43 1954 1534.18 Q1954 1527.84 1957.47 1524.2 Q1960.97 1520.57 1967.03 1520.57 Q1969 1520.57 1970.87 1520.99 Q1972.75 1521.38 1974.51 1522.19 Z" fill="#000000" fill-rule="evenodd" fill-opacity="1" /><polyline clip-path="url(#clip702)" style="stroke:#000000; stroke-linecap:butt; stroke-linejoin:round; stroke-width:2; stroke-opacity:0.1; fill:none" points="
  141.853,1445.72 2352.76,1445.72 
  "/>
<polyline clip-path="url(#clip702)" style="stroke:#000000; stroke-linecap:butt; stroke-linejoin:round; stroke-width:2; stroke-opacity:0.1; fill:none" points="
  141.853,1108.16 2352.76,1108.16 
  "/>
<polyline clip-path="url(#clip702)" style="stroke:#000000; stroke-linecap:butt; stroke-linejoin:round; stroke-width:2; stroke-opacity:0.1; fill:none" points="
  141.853,770.597 2352.76,770.597 
  "/>
<polyline clip-path="url(#clip702)" style="stroke:#000000; stroke-linecap:butt; stroke-linejoin:round; stroke-width:2; stroke-opacity:0.1; fill:none" points="
  141.853,433.037 2352.76,433.037 
  "/>
<polyline clip-path="url(#clip702)" style="stroke:#000000; stroke-linecap:butt; stroke-linejoin:round; stroke-width:2; stroke-opacity:0.1; fill:none" points="
  141.853,95.4776 2352.76,95.4776 
  "/>
<polyline clip-path="url(#clip700)" style="stroke:#000000; stroke-linecap:butt; stroke-linejoin:round; stroke-width:4; stroke-opacity:1; fill:none" points="
  141.853,1486.45 141.853,47.2441 
  "/>
<polyline clip-path="url(#clip700)" style="stroke:#000000; stroke-linecap:butt; stroke-linejoin:round; stroke-width:4; stroke-opacity:1; fill:none" points="
  141.853,1445.72 168.384,1445.72 
  "/>
<polyline clip-path="url(#clip700)" style="stroke:#000000; stroke-linecap:butt; stroke-linejoin:round; stroke-width:4; stroke-opacity:1; fill:none" points="
  141.853,1108.16 168.384,1108.16 
  "/>
<polyline clip-path="url(#clip700)" style="stroke:#000000; stroke-linecap:butt; stroke-linejoin:round; stroke-width:4; stroke-opacity:1; fill:none" points="
  141.853,770.597 168.384,770.597 
  "/>
<polyline clip-path="url(#clip700)" style="stroke:#000000; stroke-linecap:butt; stroke-linejoin:round; stroke-width:4; stroke-opacity:1; fill:none" points="
  141.853,433.037 168.384,433.037 
  "/>
<polyline clip-path="url(#clip700)" style="stroke:#000000; stroke-linecap:butt; stroke-linejoin:round; stroke-width:4; stroke-opacity:1; fill:none" points="
  141.853,95.4776 168.384,95.4776 
  "/>
<path clip-path="url(#clip700)" d="M93.9086 1431.51 Q90.2975 1431.51 88.4688 1435.08 Q86.6632 1438.62 86.6632 1445.75 Q86.6632 1452.86 88.4688 1456.42 Q90.2975 1459.96 93.9086 1459.96 Q97.5428 1459.96 99.3483 1456.42 Q101.177 1452.86 101.177 1445.75 Q101.177 1438.62 99.3483 1435.08 Q97.5428 1431.51 93.9086 1431.51 M93.9086 1427.81 Q99.7187 1427.81 102.774 1432.42 Q105.853 1437 105.853 1445.75 Q105.853 1454.48 102.774 1459.08 Q99.7187 1463.67 93.9086 1463.67 Q88.0984 1463.67 85.0197 1459.08 Q81.9642 1454.48 81.9642 1445.75 Q81.9642 1437 85.0197 1432.42 Q88.0984 1427.81 93.9086 1427.81 Z" fill="#000000" fill-rule="evenodd" fill-opacity="1" /><path clip-path="url(#clip700)" d="M57.7745 1121.5 L74.0939 1121.5 L74.0939 1125.44 L52.1495 1125.44 L52.1495 1121.5 Q54.8115 1118.75 59.3949 1114.12 Q64.0013 1109.46 65.1819 1108.12 Q67.4272 1105.6 68.3068 1103.86 Q69.2096 1102.1 69.2096 1100.41 Q69.2096 1097.66 67.2652 1095.92 Q65.3439 1094.19 62.2421 1094.19 Q60.043 1094.19 57.5893 1094.95 Q55.1588 1095.71 52.381 1097.27 L52.381 1092.54 Q55.2051 1091.41 57.6588 1090.83 Q60.1124 1090.25 62.1495 1090.25 Q67.5198 1090.25 70.7142 1092.94 Q73.9087 1095.62 73.9087 1100.11 Q73.9087 1102.24 73.0985 1104.16 Q72.3115 1106.06 70.205 1108.65 Q69.6263 1109.33 66.5245 1112.54 Q63.4226 1115.74 57.7745 1121.5 Z" fill="#000000" fill-rule="evenodd" fill-opacity="1" /><path clip-path="url(#clip700)" d="M93.9086 1093.95 Q90.2975 1093.95 88.4688 1097.52 Q86.6632 1101.06 86.6632 1108.19 Q86.6632 1115.3 88.4688 1118.86 Q90.2975 1122.4 93.9086 1122.4 Q97.5428 1122.4 99.3483 1118.86 Q101.177 1115.3 101.177 1108.19 Q101.177 1101.06 99.3483 1097.52 Q97.5428 1093.95 93.9086 1093.95 M93.9086 1090.25 Q99.7187 1090.25 102.774 1094.86 Q105.853 1099.44 105.853 1108.19 Q105.853 1116.92 102.774 1121.52 Q99.7187 1126.11 93.9086 1126.11 Q88.0984 1126.11 85.0197 1121.52 Q81.9642 1116.92 81.9642 1108.19 Q81.9642 1099.44 85.0197 1094.86 Q88.0984 1090.25 93.9086 1090.25 Z" fill="#000000" fill-rule="evenodd" fill-opacity="1" /><path clip-path="url(#clip700)" d="M66.5939 757.391 L54.7884 775.84 L66.5939 775.84 L66.5939 757.391 M65.367 753.317 L71.2466 753.317 L71.2466 775.84 L76.1772 775.84 L76.1772 779.729 L71.2466 779.729 L71.2466 787.877 L66.5939 787.877 L66.5939 779.729 L50.9921 779.729 L50.9921 775.215 L65.367 753.317 Z" fill="#000000" fill-rule="evenodd" fill-opacity="1" /><path clip-path="url(#clip700)" d="M93.9086 756.395 Q90.2975 756.395 88.4688 759.96 Q86.6632 763.502 86.6632 770.631 Q86.6632 777.738 88.4688 781.303 Q90.2975 784.844 93.9086 784.844 Q97.5428 784.844 99.3483 781.303 Q101.177 777.738 101.177 770.631 Q101.177 763.502 99.3483 759.96 Q97.5428 756.395 93.9086 756.395 M93.9086 752.692 Q99.7187 752.692 102.774 757.298 Q105.853 761.881 105.853 770.631 Q105.853 779.358 102.774 783.965 Q99.7187 788.548 93.9086 788.548 Q88.0984 788.548 85.0197 783.965 Q81.9642 779.358 81.9642 770.631 Q81.9642 761.881 85.0197 757.298 Q88.0984 752.692 93.9086 752.692 Z" fill="#000000" fill-rule="evenodd" fill-opacity="1" /><path clip-path="url(#clip700)" d="M64.3254 431.174 Q61.1773 431.174 59.3254 433.326 Q57.4967 435.479 57.4967 439.229 Q57.4967 442.956 59.3254 445.132 Q61.1773 447.285 64.3254 447.285 Q67.4735 447.285 69.3022 445.132 Q71.1541 442.956 71.1541 439.229 Q71.1541 435.479 69.3022 433.326 Q67.4735 431.174 64.3254 431.174 M73.6077 416.521 L73.6077 420.78 Q71.8485 419.947 70.0429 419.507 Q68.2606 419.067 66.5013 419.067 Q61.8717 419.067 59.418 422.192 Q56.9875 425.317 56.6402 431.637 Q58.006 429.623 60.0662 428.558 Q62.1263 427.47 64.6032 427.47 Q69.8115 427.47 72.8207 430.641 Q75.8531 433.789 75.8531 439.229 Q75.8531 444.553 72.705 447.771 Q69.5568 450.988 64.3254 450.988 Q58.33 450.988 55.1588 446.405 Q51.9875 441.799 51.9875 433.072 Q51.9875 424.877 55.8764 420.016 Q59.7652 415.132 66.3161 415.132 Q68.0754 415.132 69.8578 415.479 Q71.6633 415.827 73.6077 416.521 Z" fill="#000000" fill-rule="evenodd" fill-opacity="1" /><path clip-path="url(#clip700)" d="M93.9086 418.836 Q90.2975 418.836 88.4688 422.401 Q86.6632 425.942 86.6632 433.072 Q86.6632 440.178 88.4688 443.743 Q90.2975 447.285 93.9086 447.285 Q97.5428 447.285 99.3483 443.743 Q101.177 440.178 101.177 433.072 Q101.177 425.942 99.3483 422.401 Q97.5428 418.836 93.9086 418.836 M93.9086 415.132 Q99.7187 415.132 102.774 419.739 Q105.853 424.322 105.853 433.072 Q105.853 441.799 102.774 446.405 Q99.7187 450.988 93.9086 450.988 Q88.0984 450.988 85.0197 446.405 Q81.9642 441.799 81.9642 433.072 Q81.9642 424.322 85.0197 419.739 Q88.0984 415.132 93.9086 415.132 Z" fill="#000000" fill-rule="evenodd" fill-opacity="1" /><path clip-path="url(#clip700)" d="M63.7467 96.3457 Q60.4134 96.3457 58.4921 98.128 Q56.5939 99.9104 56.5939 103.035 Q56.5939 106.16 58.4921 107.943 Q60.4134 109.725 63.7467 109.725 Q67.08 109.725 69.0013 107.943 Q70.9226 106.137 70.9226 103.035 Q70.9226 99.9104 69.0013 98.128 Q67.1032 96.3457 63.7467 96.3457 M59.0708 94.3549 Q56.0615 93.6142 54.3717 91.554 Q52.7051 89.4938 52.7051 86.5309 Q52.7051 82.3874 55.6449 79.98 Q58.6078 77.5726 63.7467 77.5726 Q68.9087 77.5726 71.8485 79.98 Q74.7883 82.3874 74.7883 86.5309 Q74.7883 89.4938 73.0985 91.554 Q71.4318 93.6142 68.4457 94.3549 Q71.8253 95.142 73.7003 97.4336 Q75.5985 99.7253 75.5985 103.035 Q75.5985 108.059 72.5198 110.744 Q69.4642 113.429 63.7467 113.429 Q58.0291 113.429 54.9504 110.744 Q51.8949 108.059 51.8949 103.035 Q51.8949 99.7253 53.793 97.4336 Q55.6912 95.142 59.0708 94.3549 M57.3578 86.9707 Q57.3578 89.6559 59.0245 91.1605 Q60.7143 92.6651 63.7467 92.6651 Q66.7559 92.6651 68.4457 91.1605 Q70.1587 89.6559 70.1587 86.9707 Q70.1587 84.2855 68.4457 82.7809 Q66.7559 81.2763 63.7467 81.2763 Q60.7143 81.2763 59.0245 82.7809 Q57.3578 84.2855 57.3578 86.9707 Z" fill="#000000" fill-rule="evenodd" fill-opacity="1" /><path clip-path="url(#clip700)" d="M93.9086 81.2763 Q90.2975 81.2763 88.4688 84.8411 Q86.6632 88.3827 86.6632 95.5123 Q86.6632 102.619 88.4688 106.184 Q90.2975 109.725 93.9086 109.725 Q97.5428 109.725 99.3483 106.184 Q101.177 102.619 101.177 95.5123 Q101.177 88.3827 99.3483 84.8411 Q97.5428 81.2763 93.9086 81.2763 M93.9086 77.5726 Q99.7187 77.5726 102.774 82.1791 Q105.853 86.7624 105.853 95.5123 Q105.853 104.239 102.774 108.846 Q99.7187 113.429 93.9086 113.429 Q88.0984 113.429 85.0197 108.846 Q81.9642 104.239 81.9642 95.5123 Q81.9642 86.7624 85.0197 82.1791 Q88.0984 77.5726 93.9086 77.5726 Z" fill="#000000" fill-rule="evenodd" fill-opacity="1" /><path clip-path="url(#clip702)" d="
M263.457 87.9763 L263.457 1445.72 L825.655 1445.72 L825.655 87.9763 L263.457 87.9763 L263.457 87.9763  Z
  " fill="#009af9" fill-rule="evenodd" fill-opacity="1"/>
<polyline clip-path="url(#clip702)" style="stroke:#000000; stroke-linecap:butt; stroke-linejoin:round; stroke-width:4; stroke-opacity:1; fill:none" points="
  263.457,87.9763 263.457,1445.72 825.655,1445.72 825.655,87.9763 263.457,87.9763 
  "/>
<path clip-path="url(#clip702)" d="
M966.205 826.857 L966.205 1445.72 L1528.4 1445.72 L1528.4 826.857 L966.205 826.857 L966.205 826.857  Z
  " fill="#009af9" fill-rule="evenodd" fill-opacity="1"/>
<polyline clip-path="url(#clip702)" style="stroke:#000000; stroke-linecap:butt; stroke-linejoin:round; stroke-width:4; stroke-opacity:1; fill:none" points="
  966.205,826.857 966.205,1445.72 1528.4,1445.72 1528.4,826.857 966.205,826.857 
  "/>
<path clip-path="url(#clip702)" d="
M1668.95 1061.54 L1668.95 1445.72 L2231.15 1445.72 L2231.15 1061.54 L1668.95 1061.54 L1668.95 1061.54  Z
  " fill="#009af9" fill-rule="evenodd" fill-opacity="1"/>
<polyline clip-path="url(#clip702)" style="stroke:#000000; stroke-linecap:butt; stroke-linejoin:round; stroke-width:4; stroke-opacity:1; fill:none" points="
  1668.95,1061.54 1668.95,1445.72 2231.15,1445.72 2231.15,1061.54 1668.95,1061.54 
  "/>
</svg>
